<svg width="180" height="162" viewBox="0 0 180 162" xmlns="http://www.w3.org/2000/svg"><title>Page 1</title><g fill="none" fill-rule="evenodd"><path d="M180 149.784c0 6.7-40.294 12.13-90 12.13s-90-5.43-90-12.13c0-6.7 40.294-12.13 90-12.13s90 5.43 90 12.13" fill="#EDEEEF"/><path d="M117.06 10.963L62.91 0 11.83 10.33c-1.8.364-3.095 2.01-3.095 3.926l.024 132.728c0 2.51 2.188 4.4 4.543 3.922l49.58-10.037 54.178 10.956 51.04-9.29c1.83-.333 3.166-1.994 3.166-3.937V4.842c0-2.51-2.186-4.4-4.542-3.924L117.06 10.962z" fill="#89C659"/><path d="M117.06 10.963L62.91 0 11.83 10.33c-1.8.364-3.095 2.01-3.095 3.926l.024 132.728c0 2.51 2.188 4.4 4.543 3.922l49.58-10.037 54.178 10.956 44.47-7.55c1.846-.316 3.204-1.987 3.204-3.947V6.57c0-2.498-2.163-4.382-4.508-3.93l-43.165 8.323z" fill="#96D15F"/><path d="M122.542 150.73l-54.177-10.957-5.448 1.102 54.144 10.95 44.468-7.55c.353-.062.68-.184.99-.335l-39.976 6.79z" fill="#96D15F"/><path d="M144.608 92.625s-9.507-8.396-16.13 4.57c-6.62 12.967 23.65 2.533 16.13 24.385-7.52 21.853 33.345 4.108 0-28.955M62.91 0l-.026 140.87 54.176 10.956V10.963" fill="#8ACC5A"/><path d="M71.65 1.77S96.04 19.543 94.92 37.04c-1.116 17.497 15.93 28.875 16.047 12.772.117-16.104 0-40.083 0-40.083L71.65 1.77z" fill="#96D15F"/><path d="M66.462 83.318c-23.504 1.414-43.322 14.684-57.71 28.32l.007 31.172c8.217-11.528 31.264-40.036 59.203-41.716 48.943-2.944 83.758-27.777 103.303-46.448v-30.28c-1.065.823-2.03 1.827-2.843 3.013-.357.518-36.443 51.998-101.96 55.938" fill="#D7D9DD"/><path d="M67.963 101.094c43.904-2.642 76.43-22.894 96.772-40.514V32.107c-10.73 12.904-44.636 47.985-98.273 51.21-23.504 1.415-43.322 14.684-57.71 28.32l.003 13.14.004 18.033c8.217-11.53 31.264-40.036 59.203-41.716" fill="#F4F5FA"/><path d="M17.216 123.462s27.963-8.845 45.7-1.612c17.74 7.233 26.472-19.365 48.104-7.144 21.632 12.22 50.907-26.297 46.55-51.71" stroke="#F4F5FA" stroke-width="7.668" stroke-linecap="round"/><path d="M23.805 110.436c14.253-11.594 28.79-17.902 43.317-18.775 38.42-2.31 67.334-19.45 86.093-35.158" stroke="#647A7A" stroke-width="7.668" stroke-linecap="round"/><path d="M62.897 83.633l-.005 18.064c1.67-.294 3.36-.5 5.07-.603 18.385-1.106 34.764-5.305 49.099-11.1V69.706C102.92 76.73 86.008 82.143 66.462 83.32c-1.197.07-2.383.18-3.563.314" fill="#5789A3" opacity=".2"/><path d="M11.828 10.33c-1.797.364-3.094 2.01-3.094 3.926l.01 56.84.007.03s7.035-27.003 22.29-21.314c15.254 5.69 16.685-21.585 8.23-28.248-8.457-6.663 0-16.782 0-16.783l-27.442 5.55zM74.86 143.29s6.567-9.513 15.112-3.232c8.545 6.28 5.927-20.03 12.21-17.29 6.283 2.742 5.473 27.156 5.473 27.156L74.86 143.29zM137.852 6.758s4.126 10.745-5.3 14.463c-9.425 3.72 16.075 14.477 27.674-18.58l-22.374 4.117z" fill="#BFDDF0"/><path d="M14.24 145.887l-.024-132.73c0-1.914 1.296-3.56 3.092-3.922l-5.48 1.095c-1.797.364-3.094 2.01-3.094 3.925l.026 132.728c0 2.51 2.187 4.4 4.543 3.923l5.37-1.087c-2.312.394-4.43-1.462-4.432-3.933" fill="#FFF" opacity=".2"/><path d="M24.84 112.35c-.978 0-1.77-.79-1.77-1.77V85.59h3.54v24.99c0 .98-.792 1.77-1.77 1.77" fill="#303A3A"/><path d="M34.043 78.864c0 5.083-4.12 9.203-9.203 9.203-5.083 0-9.203-4.12-9.203-9.203 0-5.082 4.12-9.203 9.203-9.203 5.082 0 9.203 4.122 9.203 9.204" fill="#FF3342"/><path d="M24.475 76.033c0 1.362-1.104 2.466-2.467 2.466-1.362 0-2.467-1.105-2.467-2.467s1.106-2.467 2.468-2.467c1.363 0 2.467 1.105 2.467 2.467" fill="#FAFAFA"/><path d="M153.607 57.676h-.785c-.76 0-1.377-.617-1.377-1.378V30.913h3.54v25.385c0 .76-.617 1.378-1.378 1.378" fill="#303A3A"/><path d="M162.418 24.188c0 5.083-4.12 9.203-9.203 9.203-5.082 0-9.203-4.12-9.203-9.202s4.12-9.203 9.203-9.203c5.083 0 9.203 4.12 9.203 9.203" fill="#5DA400"/><path d="M152.85 21.357c0 1.362-1.104 2.466-2.466 2.466s-2.467-1.104-2.467-2.466 1.105-2.467 2.467-2.467 2.466 1.105 2.466 2.467" fill="#FAFAFA"/><path d="M18.673 149.82s7.495-13.523 16.765-15.705c10.492-2.47 16.764 8.574 16.764 8.574l-33.53 7.13z" fill="#8ACC5A"/><path d="M112.887 68.077H70.195c-3.77 0-6.826-3.057-6.826-6.826V24.28c0-3.77 3.055-6.825 6.825-6.825h42.692c3.77 0 6.825 3.056 6.825 6.825V61.25c0 3.77-3.055 6.827-6.825 6.827" fill="#D7D9DD"/><path fill="#D7D9DD" d="M98.31 68.077l-6.77 10.38H88.46l-3.688-10.38 6.77-10.38"/><path d="M109.806 68.077H67.114c-3.77 0-6.826-3.057-6.826-6.826V24.28c0-3.77 3.056-6.825 6.826-6.825h42.692c3.77 0 6.825 3.056 6.825 6.825V61.25c0 3.77-3.054 6.827-6.824 6.827" fill="#FFF"/><path fill="#FFF" d="M95.23 68.077l-6.772 10.38-6.77-10.38 6.77-10.38"/><path d="M103.69 41.11c0 8.448-6.85 15.297-15.298 15.297-8.45 0-15.298-6.85-15.298-15.298 0-8.45 6.85-15.3 15.298-15.3 8.45 0 15.298 6.85 15.298 15.3" fill="#F6C250"/><path stroke="#FFF" stroke-width="3.664" stroke-linecap="round" stroke-linejoin="round" d="M82.53 41.71l3.893 3.3 7.373-7.8"/></g></svg>