<svg width="30" height="27" viewBox="0 0 30 27" xmlns="http://www.w3.org/2000/svg"><title>ic_savings</title><g fill="none" fill-rule="evenodd"><path d="M10 .32c-2.664 0-5.078.513-6.885 1.396C1.307 2.6 0 3.918 0 5.546V21.19c0 1.614 1.293 2.926 3.104 3.81 1.81.886 4.23 1.406 6.896 1.406 2.24 0 4.304-.374 5.98-1.018 1.31.65 2.787 1.018 4.353 1.018 5.33 0 9.667-4.24 9.667-9.452 0-5.213-4.336-9.452-9.667-9.452-.114 0-.23.006-.343.01V5.546c0-1.628-1.297-2.946-3.105-3.83C15.078.833 12.665.32 10 .32zm0 1.315c2.49 0 4.742.505 6.313 1.273 1.57.768 2.364 1.746 2.364 2.638-.31 1.384-1.347 2.146-2.364 2.628-1.57.768-3.822 1.273-6.313 1.273-2.49 0-4.742-.505-6.313-1.273-1.163-.59-2.223-1.488-2.364-2.628 0-.892.794-1.87 2.365-2.638C5.258 2.14 7.508 1.635 10 1.635zm-8.667 6.56c.494.444 1.104.84 1.782 1.17 1.807.884 4.22 1.396 6.885 1.396 1.155 0 2.26-.103 3.292-.284-.787.817-1.424 1.772-1.875 2.82-.46.04-.933.073-1.417.073-2.487 0-4.734-.508-6.302-1.274-1.568-.767-2.365-1.73-2.365-2.64V8.195zm19 .61c4.61 0 8.334 3.64 8.334 8.15 0 4.507-3.723 8.148-8.334 8.148-4.61 0-8.333-3.64-8.333-8.15 0-4.507 3.723-8.147 8.333-8.147zm-19 3.3c.49.442 1.097.832 1.77 1.162 1.81.885 4.23 1.406 6.897 1.406.326 0 .642-.015.958-.03-.19.738-.29 1.515-.29 2.31 0 .106.006.212.01.317-.224.008-.448.01-.678.01-2.487 0-4.734-.507-6.302-1.273-1.568-.767-2.365-1.73-2.365-2.638v-1.264zm0 3.912c.49.44 1.097.832 1.77 1.16 1.81.886 4.23 1.407 6.897 1.407.273 0 .546-.008.813-.02.158.898.445 1.753.843 2.546-.537.052-1.087.082-1.656.082-2.487 0-4.734-.507-6.302-1.274-1.568-.766-2.365-1.73-2.365-2.638v-1.263zm0 3.91c.49.443 1.097.833 1.77 1.162 1.81.885 4.23 1.405 6.897 1.405.83 0 1.636-.046 2.406-.142.586.82 1.3 1.536 2.115 2.14-1.314.376-2.862.61-4.52.61-2.486 0-4.733-.507-6.302-1.274-1.57-.767-2.365-1.73-2.365-2.64V19.93z" fill="#4A4A4A" fill-rule="nonzero"/><g stroke="#4A4A4A" stroke-width=".833" stroke-linecap="round"><path d="M17.008 12.957h6.61M16.907 15.098h6.7M19.04 12.955c1.462 0 2.614 1.127 2.55 2.455-.063 1.265-1.164 2.265-2.864 2.213h-1.29l4.442 4.313"/></g></g></svg>