<svg width="71" height="71" viewBox="0 0 71 71" xmlns="http://www.w3.org/2000/svg" xmlns:xlink="http://www.w3.org/1999/xlink"><title>Group</title><defs><path d="M34 68c18.778 0 34-15.222 34-34S52.778 0 34 0 0 15.222 0 34s15.222 34 34 34z" id="a"/></defs><g transform="translate(1.555 1.575)" fill="none" fill-rule="evenodd"><mask id="b" fill="#fff"><use xlink:href="#a"/></mask><use stroke="#323232" stroke-width="1.5" xlink:href="#a"/><path d="M43.73 24.355h-4.257c.664.977 1.093 2.123 1.29 3.438h3.944l-.977 3.555h-2.95c-.285 2.148-1.145 3.792-2.577 4.93-1.432 1.14-3.457 1.82-6.074 2.042l9.1 10.645v.254h-5.605l-9.94-11.583-.02-2.99h4.94c1.46 0 2.614-.3 3.467-.907.853-.605 1.423-1.403 1.71-2.392H25.27l.998-3.555h9.433c-.638-2.018-2.363-3.027-5.176-3.027h-5.254l1.055-3.985h18.4l-.998 3.575z" stroke="#323232" stroke-width="1.5" mask="url(#b)"/></g></svg>