<svg width="72" height="72" viewBox="0 0 72 72" xmlns="http://www.w3.org/2000/svg"><title>ola_money</title><g stroke="#323232" stroke-width="1.5" fill="none" fill-rule="evenodd"><path d="M35.91 71c19.33 0 35-15.67 35-35s-15.67-35-35-35-35 15.67-35 35 15.67 35 35 35"/><g stroke-opacity=".85" stroke-linejoin="round"><path d="M24.85 35.545l3.542-11.192h8.832M32.84 38.097l-3.567 11.376H20.44" stroke-linecap="round"/><path d="M40.673 35.016l3.375-10.663h8.832M48.705 37.54l-3.777 11.933h-8.83"/></g><path d="M20.447 49.473h8.833l-7.952-25.12h-8.833zM36.456 49.473h8.83l-7.95-25.12h-8.832zM52.44 49.473h8.83l-7.95-25.12H44.49z"/></g></svg>