<svg width="69" height="68" viewBox="0 0 69 68" xmlns="http://www.w3.org/2000/svg"><title>Group</title><g stroke="#323232" fill="none" fill-rule="evenodd"><path d="M34.545 67.25c-18.363 0-33.25-14.887-33.25-33.25S16.182.75 34.545.75C52.91.75 67.795 15.637 67.795 34S52.91 67.25 34.545 67.25z" stroke-width="1.5"/><g transform="translate(16.145 22.2)" stroke-width="1.493" stroke-linecap="round"><ellipse cx="18.8" cy="22.737" rx="2.8" ry="2.737"/><path d="M0 7.44S6.092.07 18.138 0C30.184-.07 36.31 7.258 36.31 7.258"/><path d="M6.4 11.074S10.86 6.397 18.216 6.4c7.356.003 11.612 4.987 11.612 4.987M12 16.427s5.746-6.312 13.257-.072"/></g></g></svg>