<svg width="69" height="69" viewBox="0 0 69 69" xmlns="http://www.w3.org/2000/svg" xmlns:xlink="http://www.w3.org/1999/xlink"><title>Group Copy 2</title><defs><ellipse id="a" cx="16.8" cy="16.865" rx="16.8" ry="16.8"/></defs><g fill="none" fill-rule="evenodd"><path d="M34.89 68.575c18.777 0 34-15.223 34-34 0-18.778-15.223-34-34-34-18.778 0-34 15.222-34 34 0 18.777 15.222 34 34 34z" fill="#D4DB28"/><g transform="translate(18.597 17.77)"><use fill="#FFF" xlink:href="#a"/><ellipse stroke="#F0F0F0" stroke-width="4.2" cx="16.8" cy="16.865" rx="14.7" ry="14.7"/><ellipse stroke="#F4F4F4" stroke-width=".8" cx="16.8" cy="16.865" rx="17.2" ry="17.2"/></g><path d="M43.797 35.578h-8.54" stroke="#D4DB28" stroke-width="2.1" stroke-linecap="round"/><g transform="rotate(90 14.714 34.483)" fill="#D4DB28"><circle cx="15.8" cy="26.4" r="1.05"/><circle cx="15.8" cy="1.2" r="1.05"/><circle cx="1.2" cy="13.8" r="1.05"/><circle cx="28.2" cy="13.8" r="1.05"/></g><path d="M35.397 35.55v-9.43" stroke="#D4DB28" stroke-width="2.1" stroke-linecap="round"/><g transform="translate(18.597 17.77)"><circle stroke="#FFF" stroke-width="2.1" cx="16.786" cy="17.786" r="1.042"/><circle stroke="#D4DB28" stroke-width=".63" cx="16.786" cy="17.786" r="1.777"/></g></g></svg>