<svg width="70" height="71" viewBox="0 0 70 71" xmlns="http://www.w3.org/2000/svg"><title>hour-pricing</title><g fill="none" fill-rule="evenodd"><path d="M34.89 69.575c18.777 0 34-15.223 34-34 0-18.778-15.223-34-34-34-18.778 0-34 15.222-34 34 0 18.777 15.222 34 34 34z" stroke="#323232" stroke-width="1.5"/><g transform="translate(18.597 18.77)"><circle stroke="#323232" stroke-width="1.5" cx="16.8" cy="16.865" r="16.05"/><path d="M25.2 17.808h-8.54" stroke="#000" stroke-width="2.1" stroke-linecap="round"/><g transform="rotate(90 14.3 16.3)" fill-rule="nonzero" fill="#000" fill-opacity=".56"><ellipse cx="15.8" cy="26.4" rx="1.05" ry="1.05"/><ellipse cx="15.8" cy="1.2" rx="1.05" ry="1.05"/><ellipse cx="1.2" cy="13.8" rx="1.05" ry="1.05"/><ellipse cx="28.2" cy="13.8" rx="1.05" ry="1.05"/></g><path d="M16.8 17.78V8.35" stroke="#000" stroke-width="2.1" stroke-linecap="round"/><circle stroke="#323232" stroke-width="2.1" cx="16.786" cy="17.786" r="1.042"/></g></g></svg>