<?xml version="1.0" encoding="UTF-8" standalone="no"?>
<svg width="69px" height="69px" viewBox="0 0 69 69" version="1.1" xmlns="http://www.w3.org/2000/svg" xmlns:xlink="http://www.w3.org/1999/xlink">
    <!-- Generator: Sketch 43.1 (39012) - http://www.bohemiancoding.com/sketch -->
    <title>warning</title>
    <desc>Created with Sketch.</desc>
    <defs></defs>
    <g id="Page-1" stroke="none" stroke-width="1" fill="none" fill-rule="evenodd">
        <g id="Group-37" transform="translate(-44.272727, -30.000000)">
            <g id="warning" transform="translate(44.289459, 30.574705)">
                <path d="M34,68 C52.7776815,68 68,52.7776815 68,34 C68,15.2223185 52.7776815,0 34,0 C15.2223185,0 0,15.2223185 0,34 C0,52.7776815 15.2223185,68 34,68 Z" id="Detail-Disclosure" fill="#D4DB28"></path>
                <g id="Group-14" transform="translate(13.083269, 15.925296)" stroke="#FFFFFF" stroke-width="0.8" fill="#FFFFFF" fill-rule="nonzero">
                    <path d="M37.6005099,12.1261009 C35.1236803,5.10779375 28.4482011,0.259764067 20.8133842,0.259764067 C12.7862431,0.259764067 5.81517299,5.61933672 3.67530028,13.2349542 C3.52590232,13.7666484 3.8358146,14.3187826 4.36750873,14.4681806 C4.89920287,14.6175786 5.45133711,14.3076663 5.60073508,13.7759721 C7.4997095,7.01769029 13.6882324,2.25976395 20.8133842,2.25976395 C27.6118455,2.25976395 33.5540752,6.59102955 35.7354293,12.8514174 L34.1642564,11.9805021 C33.6812173,11.7127491 33.0725801,11.887273 32.8048272,12.3703121 C32.5370743,12.8533512 32.7115982,13.4619884 33.1946373,13.7297414 L36.7623994,15.7073842 C37.2454385,15.9751372 37.8540757,15.8006133 38.1218287,15.3175742 C38.1350068,15.2938001 38.1471136,15.2697218 38.158165,15.2453949 L40.1193384,11.7073445 C40.3870913,11.2243054 40.2125674,10.6156682 39.7295283,10.3479153 C39.2464892,10.0801623 38.637852,10.2546862 38.3700991,10.7377253 L37.6005099,12.1261009 Z" id="Combined-Shape"></path>
                    <path d="M5.3188758,21.1684503 C6.77643211,28.4832507 13.2320243,33.8597621 20.8133842,33.8597621 C28.5468255,33.8597621 35.1090209,28.2653528 36.3895932,20.7256404 C36.4820709,20.1811532 36.9984329,19.8147271 37.5429201,19.9072048 C38.0874073,19.9996825 38.4538334,20.5160445 38.3613557,21.0605317 C36.9181243,29.5579429 29.5261431,35.8597619 20.8133842,35.8597619 C12.1398353,35.8597619 4.77535938,29.6145686 3.28531666,21.1754501 L2.13333784,22.3683591 C1.74968864,22.7656395 1.11662014,22.7766897 0.719339757,22.3930405 C0.322059379,22.0093913 0.311009128,21.3763228 0.694658329,20.9790425 L3.52831943,18.0447005 C3.91196863,17.6474201 4.54503714,17.6363699 4.94231752,18.0200191 C4.96187071,18.0389014 4.98048832,18.0583878 4.99816932,18.0784207 L7.90807456,20.8884835 C8.30535494,21.2721327 8.31640519,21.9052012 7.93275599,22.3024816 C7.54910679,22.699762 6.91603828,22.7108122 6.51875791,22.327163 L5.3188758,21.1684503 Z" id="Combined-Shape"></path>
                </g>
            </g>
        </g>
    </g>
</svg>