<svg width="180" height="162" viewBox="0 0 180 162" xmlns="http://www.w3.org/2000/svg" xmlns:xlink="http://www.w3.org/1999/xlink"><title>Page 1</title><defs><path id="a" d="M0 12.87V25h180V.74H0z"/></defs><g fill="none" fill-rule="evenodd"><g transform="translate(0 136.914)"><mask id="b" fill="#fff"><use xlink:href="#a"/></mask><path d="M180 12.87C180 19.57 139.706 25 90 25S0 19.57 0 12.87C0 6.17 40.294.74 90 .74s90 5.43 90 12.13" fill="#EDEEEF" mask="url(#b)"/></g><path d="M117.06 10.962L62.91 0 11.83 10.33c-1.8.364-3.097 2.01-3.095 3.925l.026 132.728c0 2.512 2.188 4.4 4.543 3.923l49.58-10.037 54.178 10.956 51.04-9.29c1.83-.333 3.166-1.995 3.166-3.938V4.842c0-2.51-2.186-4.4-4.542-3.923L117.06 10.96z" fill="#89C659"/><path d="M117.06 10.962L62.91 0 11.83 10.33c-1.8.364-3.097 2.01-3.095 3.925l.026 132.728c0 2.512 2.188 4.4 4.543 3.923l49.58-10.037 54.178 10.956 44.47-7.553c1.846-.313 3.204-1.984 3.204-3.944V6.57c0-2.498-2.163-4.383-4.508-3.93L117.06 10.96z" fill="#96D15F"/><path d="M122.542 150.73L68.365 139.77l-5.448 1.103 54.144 10.95 44.468-7.552c.353-.06.68-.183.99-.333l-39.976 6.79z" fill="#96D15F"/><path d="M144.757 97.125s-7.517-6.64-12.753 3.613c-5.236 10.254 18.7 2.003 12.753 19.283-5.946 17.28 26.368 3.25 0-22.895M62.91 0l-.026 140.87 54.176 10.956V10.962" fill="#8ACC5A"/><path d="M71.208 142.56c1.272-17.06 7.014-25.14 13.808-33.147 8.727-10.285 5.504-20.31 5.362-20.733-.674-2.007-2.845-3.087-4.855-2.415-2.006.674-3.088 2.847-2.415 4.856.02.06 1.926 6.42-3.94 13.334-6.992 8.243-13.905 17.866-15.526 36.57l7.566 1.535z" fill="#F4F5FA"/><path d="M71.65 1.77S96.04 19.544 94.92 37.04c-1.116 17.496 15.93 28.875 16.047 12.772.117-16.103 0-40.083 0-40.083L71.65 1.77z" fill="#96D15F"/><path d="M66.462 79.484c-23.504 1.414-43.322 14.684-57.71 28.32l.007 27.338c8.216-11.528 31.264-40.036 59.203-41.716 48.943-2.944 83.758-27.776 103.303-46.448V20.53c-1.065.825-2.03 1.83-2.843 3.015-.357.52-36.443 52-101.96 55.94" fill="#D7D9DD"/><path d="M67.963 93.427c43.904-2.64 76.43-22.894 96.772-40.514v-24.64c-10.73 12.905-44.637 47.986-98.273 51.212-23.504 1.414-43.323 14.683-57.71 28.32l.003 11.22.004 16.118c8.216-11.53 31.264-40.036 59.203-41.716" fill="#F4F5FA"/><path d="M51.977 2.205c2.46 7.99 6.995 26.103 4.002 43.218-5.098 29.143.913 35.835.974 35.9-.123-.13-.202-.175-.202-.175L52 87.164c-1.63-1.286-9.46-9.412-3.574-43.062 2.78-15.897-1.85-33.432-4.008-40.337l7.56-1.56z" fill="#F4F5FA"/><path d="M23.804 105.644c14.253-11.595 28.79-17.901 43.318-18.776 38.42-2.31 67.334-19.45 86.093-35.158" stroke="#647A7A" stroke-width="7.668" stroke-linecap="round"/><path d="M11.828 10.33c-1.796.364-3.094 2.01-3.094 3.925l.01 56.842.007.027s7.035-27 22.29-21.312c15.254 5.69 16.686-21.585 8.23-28.248-8.457-6.663 0-16.782 0-16.783l-27.442 5.55zM74.86 143.29s6.567-19.098 15.112-12.817c8.545 6.28 5.927-20.03 12.21-17.288 6.283 2.74 5.473 36.74 5.473 36.74L74.86 143.29zM137.852 6.758s4.126 10.745-5.3 14.463c-9.425 3.72 16.075 14.478 27.674-18.58l-22.374 4.118z" fill="#BFDDF0"/><path d="M14.24 145.888l-.025-132.73c0-1.914 1.297-3.56 3.094-3.923l-5.482 1.096c-1.796.365-3.094 2.01-3.094 3.926l.026 132.728c0 2.51 2.188 4.4 4.543 3.923l5.37-1.087c-2.312.395-4.432-1.46-4.432-3.932" fill="#FFF" opacity=".2"/><path d="M24.84 106.6c-.978 0-1.77-.79-1.77-1.77V79.838h3.54v24.993c0 .978-.793 1.77-1.77 1.77" fill="#303A3A"/><path d="M34.042 73.114c0 5.083-4.12 9.203-9.203 9.203-5.084 0-9.204-4.12-9.204-9.203 0-5.083 4.12-9.203 9.204-9.203 5.082 0 9.202 4.12 9.202 9.204" fill="#FF3342"/><path d="M24.475 70.282c0 1.362-1.104 2.467-2.467 2.467-1.362 0-2.466-1.106-2.466-2.468 0-1.362 1.104-2.466 2.466-2.466 1.363 0 2.467 1.104 2.467 2.466" fill="#FAFAFA"/><path d="M153.607 51.925h-.785c-.76 0-1.377-.617-1.377-1.377V25.163h3.54v25.385c0 .76-.617 1.377-1.378 1.377" fill="#303A3A"/><path d="M162.418 18.438c0 5.083-4.12 9.203-9.203 9.203-5.082 0-9.203-4.12-9.203-9.202 0-5.083 4.12-9.203 9.203-9.203 5.083 0 9.203 4.12 9.203 9.203" fill="#5DA400"/><path d="M152.85 15.606c0 1.362-1.104 2.467-2.466 2.467s-2.467-1.105-2.467-2.467 1.105-2.466 2.467-2.466 2.466 1.104 2.466 2.466" fill="#FAFAFA"/><path d="M14.797 149.924s11.768-28.43 21.634-24.09c9.867 4.342 15.772 16.856 15.772 16.856l-37.405 7.234z" fill="#8ACC5A"/><path d="M71.21 142.553c1.272-17.053 7.013-25.132 13.806-33.14 6.74-7.943 6.352-15.727 5.76-19.056 9.412-1.987 18.177-4.752 26.285-8.03V65.872c-14.14 7.022-31.052 12.436-50.599 13.612-1.197.072-2.383.182-3.563.315l-.005 14.23c1.67-.294 3.36-.5 5.07-.603 5.263-.316 10.353-.895 15.287-1.683.314 1.764.722 7.05-4.082 12.71-6.992 8.243-13.905 17.866-15.527 36.57l7.569 1.53z" fill="#5789A3" opacity=".2"/><path d="M49.376 6.515c.08.3.16.61.24.923" stroke="#647A7A" stroke-width=".958" stroke-linecap="round"/><path d="M50.29 10.198c2.148 9.256 4.078 22.516 1.855 35.226-3.628 20.742-1.63 30.11-.153 33.812" stroke="#647A7A" stroke-width=".958" stroke-linecap="round" stroke-dasharray="1.895,2.842"/><path d="M52.594 80.526c.304.55.514.784.525.796-.123-.128-.2-.174-.2-.174" stroke="#647A7A" stroke-width=".958" stroke-linecap="round"/><path d="M67.556 138.933c1.71-14.62 6.914-22.1 12.99-29.52 6.506-7.944 7.09-15.727 6.52-19.056" stroke="#647A7A" stroke-width=".958" stroke-linecap="round" stroke-dasharray="1.883,2.825"/></g></svg>