<?xml version="1.0" encoding="UTF-8" standalone="no"?>
<svg width="50px" height="33px" viewBox="0 0 50 33" version="1.1" xmlns="http://www.w3.org/2000/svg" xmlns:xlink="http://www.w3.org/1999/xlink">
    <!-- Generator: Sketch 44.1 (41455) - http://www.bohemiancoding.com/sketch -->
    <title>cloud sun</title>
    <desc>Created with Sketch.</desc>
    <defs></defs>
    <g id="Warangal-Route" stroke="none" stroke-width="1" fill="none" fill-rule="evenodd">
        <g id="Warangal---Must-See-Places-Tab" transform="translate(-150.000000, -1055.000000)" fill-rule="nonzero" fill="#9B9B9B">
            <g id="Route-Information" transform="translate(134.000000, 929.000000)">
                <g id="Heading-and-Sub">
                    <g id="Route-Detals" transform="translate(0.000000, 117.000000)">
                        <g id="weather" transform="translate(16.000000, 4.000000)">
                            <g id="cloud-sun" transform="translate(0.000000, 5.000000)">
                                <g id="Group">
                                    <path d="M16.3029851,7.24029851 C16.8447761,7.24029851 17.2880597,6.79701493 17.2880597,6.25522388 L17.2880597,1.03432836 C17.2880597,0.492537313 16.8447761,0.0492537313 16.3029851,0.0492537313 C15.761194,0.0492537313 15.3179104,0.492537313 15.3179104,1.03432836 L15.3179104,6.20597015 C15.3179104,6.79701493 15.761194,7.24029851 16.3029851,7.24029851 Z" id="Shape"></path>
                                    <path d="M7.14179104,16.3522388 C7.14179104,15.8104478 6.69850746,15.3671642 6.15671642,15.3671642 L0.985074627,15.3671642 C0.443283582,15.3671642 0,15.8104478 0,16.3522388 C0,16.8940299 0.443283582,17.3373134 0.985074627,17.3373134 L6.15671642,17.3373134 C6.74776119,17.3373134 7.14179104,16.8940299 7.14179104,16.3522388 Z" id="Shape"></path>
                                    <path d="M8.42238806,22.8044776 L4.72835821,26.4985075 C4.33432836,26.8925373 4.33432836,27.4835821 4.72835821,27.8776119 C4.92537313,28.0746269 5.17164179,28.1731343 5.41791045,28.1731343 C5.6641791,28.1731343 5.91044776,28.0746269 6.10746269,27.8776119 L9.80149254,24.1835821 C10.1955224,23.7895522 10.1955224,23.1985075 9.80149254,22.8044776 C9.45671642,22.4104478 8.81641791,22.4104478 8.42238806,22.8044776 Z" id="Shape"></path>
                                    <path d="M23.4447761,10.1955224 C23.6910448,10.1955224 23.9373134,10.0970149 24.1343284,9.9 L27.8283582,6.20597015 C28.2223881,5.8119403 28.2223881,5.22089552 27.8283582,4.82686567 C27.4343284,4.43283582 26.8432836,4.43283582 26.4492537,4.82686567 L22.7552239,8.52089552 C22.361194,8.91492537 22.361194,9.50597015 22.7552239,9.9 C22.9522388,10.0970149 23.1985075,10.1955224 23.4447761,10.1955224 Z" id="Shape"></path>
                                    <path d="M8.42238806,9.9 C8.61940299,10.0970149 8.86567164,10.1955224 9.1119403,10.1955224 C9.35820896,10.1955224 9.60447761,10.0970149 9.80149254,9.9 C10.1955224,9.50597015 10.1955224,8.91492537 9.80149254,8.52089552 L6.10746269,4.82686567 C5.71343284,4.43283582 5.12238806,4.43283582 4.72835821,4.82686567 C4.33432836,5.22089552 4.33432836,5.8119403 4.72835821,6.20597015 L8.42238806,9.9 Z" id="Shape"></path>
                                    <path d="M40.6835821,15.5641791 C40.141791,15.5641791 39.6,15.6134328 39.058209,15.7119403 C37.4328358,12.4119403 34.0343284,10.2447761 30.2910448,10.2447761 C27.3358209,10.2447761 24.6761194,11.5746269 22.9029851,13.6432836 C21.819403,11.0328358 19.258209,9.21044776 16.3029851,9.21044776 C12.3626866,9.21044776 9.16119403,12.4119403 9.16119403,16.3522388 C9.16119403,19.1104478 10.7373134,21.5238806 13.0522388,22.7059701 C12.6089552,23.5925373 12.3626866,24.6268657 12.3626866,25.7104478 C12.3626866,29.5522388 15.4656716,32.6552239 19.3074627,32.6552239 L40.6835821,32.6552239 C45.4119403,32.6552239 49.2537313,28.8134328 49.2537313,24.0850746 C49.2537313,19.4059701 45.4119403,15.5641791 40.6835821,15.5641791 Z M40.6835821,30.6850746 L19.3074627,30.6850746 C16.5492537,30.6850746 14.3328358,28.4686567 14.3328358,25.7104478 C14.3328358,22.9522388 16.5492537,20.7358209 19.3074627,20.7358209 C19.9477612,20.7358209 20.538806,20.8343284 21.1298507,21.080597 L22.5089552,21.6223881 L22.4597015,19.9970149 C22.4597015,15.7119403 25.9567164,12.2149254 30.241791,12.2149254 C33.4432836,12.2149254 36.3985075,14.2343284 37.5313433,17.238806 L37.8761194,18.0761194 L38.7626866,17.8298507 C39.4029851,17.6328358 40.0432836,17.5343284 40.6835821,17.5343284 C44.3283582,17.5343284 47.2835821,20.4895522 47.2835821,24.1343284 C47.2835821,27.7791045 44.3283582,30.6850746 40.6835821,30.6850746 Z M11.1313433,16.3522388 C11.1313433,13.4955224 13.4462687,11.180597 16.3029851,11.180597 C19.0119403,11.180597 21.2283582,13.2492537 21.4746269,15.9089552 C21.0313433,16.8447761 20.7358209,17.8298507 20.6373134,18.8641791 C20.2432836,18.7656716 19.8,18.7656716 19.3567164,18.7656716 C17.2880597,18.7656716 15.4656716,19.6522388 14.1850746,21.080597 C12.3626866,20.2432836 11.1313433,18.4701493 11.1313433,16.3522388 Z" id="Shape"></path>
                                </g>
                            </g>
                        </g>
                    </g>
                </g>
            </g>
        </g>
    </g>
</svg>