<?xml version="1.0" encoding="UTF-8" standalone="no"?>
<svg width="70px" height="26px" viewBox="0 0 70 26" version="1.1" xmlns="http://www.w3.org/2000/svg" xmlns:xlink="http://www.w3.org/1999/xlink">
    <!-- Generator: Sketch 44.1 (41455) - http://www.bohemiancoding.com/sketch -->
    <title>car speed</title>
    <desc>Created with Sketch.</desc>
    <defs></defs>
    <g id="Warangal-Route" stroke="none" stroke-width="1" fill="none" fill-rule="evenodd">
        <g id="Warangal---Route-Description-Tab" transform="translate(-148.000000, -1058.000000)" fill="#9B9B9B">
            <g id="Route-Information" transform="translate(148.000000, 929.000000)">
                <g id="Heading-and-Sub">
                    <g id="Route-Detals" transform="translate(0.000000, 121.000000)">
                        <g id="kms">
                            <g id="car-speed" transform="translate(0.000000, 8.000000)">
                                <g id="noun_686200_cc">
                                    <path d="M68.9985794,13.6710022 C68.2443394,9.71124223 65.3687994,8.67416225 61.6918795,7.82564226 C58.2506595,6.97712227 55.3751196,5.46864229 52.6409996,4.05444231 C48.6812397,1.98028233 44.9100397,0.000402359985 39.7717798,0.000402359985 L31.0980199,0.000402359985 C26.0540399,-0.0467376394 22,4.05444231 22,9.05128224 L22,13.8595622 C22,16.7822421 23.74418,19.2806621 26.1954599,20.4591621 C26.3368799,23.5232621 28.8824399,25.974542 31.9936799,25.974542 C34.8692198,25.974542 37.2262198,23.8532421 37.6976198,21.1191221 L53.2066796,21.1191221 C53.6780796,23.8532421 56.0350796,25.974542 58.9106195,25.974542 C61.7861595,25.974542 64.1431595,23.8532421 64.6145594,21.1191221 L64.7559794,21.1191221 C65.6044994,21.1191221 66.4530194,20.6948621 67.3015394,19.8463421 C68.8100194,18.2435821 69.4228394,15.9808622 68.9985794,13.6710022 Z M64.7559794,19.2335221 L64.6145594,19.2335221 C64.1431595,16.4994021 61.7861595,14.3781022 58.9106195,14.3781022 C56.0350796,14.3781022 53.6780796,16.4994021 53.2066796,19.2335221 L37.6976198,19.2335221 C37.2262198,16.4994021 34.8692198,14.3781022 31.9936799,14.3781022 C29.4009799,14.3781022 27.1853999,16.0751422 26.4782999,18.4321421 C24.92268,17.4893421 23.8856,15.7923022 23.8856,13.8595622 L23.8856,9.05128224 C23.8856,5.09152229 27.1382599,1.83886234 31.0980199,1.83886234 L39.7717798,1.83886234 C44.4857797,1.83886234 48.0212797,3.72446231 51.7924796,5.70434229 C54.6680196,7.21282227 57.6378395,8.76844225 61.2676195,9.66410223 C65.4159394,10.6540422 66.6887194,11.5968422 67.1601194,14.0481222 C67.4900994,15.6980222 67.0186994,17.3950621 65.9344794,18.5264221 C65.5102194,18.9978221 65.0859594,19.2335221 64.7559794,19.2335221 Z M62.8232395,20.1763221 C62.8232395,22.3447621 61.0790595,24.088942 58.9106195,24.088942 C56.7421796,24.088942 54.9979996,22.3447621 54.9979996,20.1763221 C54.9979996,18.0078821 56.7421796,16.2637021 58.9106195,16.2637021 C61.0790595,16.2637021 62.8232395,18.0078821 62.8232395,20.1763221 Z M35.9062998,20.1763221 C35.9062998,22.3447621 34.1621198,24.088942 31.9936799,24.088942 C29.8252399,24.088942 28.0810599,22.3447621 28.0810599,20.1763221 C28.0810599,18.0078821 29.8252399,16.2637021 31.9936799,16.2637021 C34.1621198,16.2637021 35.9062998,18.0078821 35.9062998,20.1763221 Z" id="Shape" fill-rule="nonzero"></path>
                                    <path d="M5,3.16666667 C5,2.52266667 5.52188889,2 6.16666667,2 L21.044,2 C21.6887778,2 22.2106667,2.52266667 22.2106667,3.16666667 C22.2106667,3.81066667 21.6887778,4.33333333 21.044,4.33333333 L6.16666667,4.33333333 C5.52188889,4.33333333 5,3.81066667 5,3.16666667 Z" id="Path"></path>
                                    <path d="M18.1898889,11.3333333 L1.16666667,11.3333333 C0.521888889,11.3333333 0,10.8106667 0,10.1666667 C0,9.52266667 0.521888889,9 1.16666667,9 L18.1906667,9 C18.8354444,9 19.3573333,9.52266667 19.3573333,10.1666667 C19.3573333,10.8106667 18.8346667,11.3333333 18.1898889,11.3333333 Z" id="Path"></path>
                                    <path d="M21.6658889,17.1666667 C21.6658889,17.8106667 21.144,18.3333333 20.4992222,18.3333333 L11.1666667,18.3333333 C10.5218889,18.3333333 10,17.8106667 10,17.1666667 C10,16.5226667 10.5218889,16 11.1666667,16 L20.4992222,16 C21.144,16 21.6658889,16.5226667 21.6658889,17.1666667 Z" id="Path"></path>
                                </g>
                            </g>
                        </g>
                    </g>
                </g>
            </g>
        </g>
    </g>
</svg>