<svg width="126px" height="43px" viewBox="0 0 126 43" version="1.1" xmlns="http://www.w3.org/2000/svg" xmlns:xlink="http://www.w3.org/1999/xlink">
    <!-- Generator: Sketch 3.6.1 (26313) - http://www.bohemiancoding.com/sketch -->
    <title>Group-Copy-5</title>
    <desc>Created with Sketch.</desc>
    <defs></defs>
    <g id="Page-1" stroke="none" stroke-width="1" fill="none" fill-rule="evenodd">
        <g id="Desktop-HD-Copy" transform="translate(-550.000000, -208.000000)">
            <g id="Group-Copy-5" transform="translate(550.000000, 208.000000)">
                <path d="M119.0556,34.2211264 L125.719568,34.2211264 L111.516765,8.6019866 L97.2532724,34.2211264 L103.806371,34.20428 L111.502315,20.584241 L119.0556,34.2211264 Z" id="Fill-6" fill="#221F20"></path>
                <path d="M70.7915633,28.3643831 C67.053541,28.359645 64.0251334,25.3193989 64.0293369,21.5745003 C64.0364305,17.8288118 67.0698298,14.7959362 70.8081149,14.8001478 C74.5492897,14.8051491 77.5740192,17.8456583 77.5690275,21.5916099 C77.5648238,25.3372982 74.5287974,28.3691211 70.7915633,28.3643831 M70.8167847,8.86521902 C63.8083869,8.85758557 58.1162314,14.5424507 58.1075615,21.5658139 C58.0988917,28.5904932 63.774233,34.2906253 70.782368,34.2993118 C77.7920793,34.3072085 83.4839722,28.6228698 83.492642,21.598717 C83.5018373,14.5748274 77.8249196,8.87548484 70.8167847,8.86521902" id="Fill-8" fill="#221F20"></path>
                <path d="M90.805263,28.3809586 L90.8278575,8.86521135 L85.1971786,8.86521135 L85.1735336,27.0924734 L85.1680164,34.3158873 L94.7558284,34.3158873 L98.1604553,28.3809586 L90.805263,28.3809586 L90.805263,28.3809586 L90.805263,28.3809586 Z" id="Fill-9" fill="#221F20"></path>
                <path d="M41.9211097,21.325839 C41.7364153,8.95374878 29.7375951,0.619526331 18.0369654,2.29389906 C14.6102698,3.15253824 10.8814428,4.9114061 8.23661082,7.33333714 C6.95163282,8.19144987 6.34658184,9.82054794 5.06212928,11.1085067 C-0.0780454156,18.832311 0.800762884,28.6950795 7.22617832,34.7026583 C8.02380522,35.5020719 8.91601236,36.297274 9.85656054,37.0103498 C4.48492695,33.7237254 2.09125807,28.7327207 1.2300522,22.6877641 C1.2300522,20.5414293 1.65881608,18.3958843 2.08679177,16.2506026 C5.08551163,6.80951986 14.5070197,-0.0564348602 24.7871064,1.66005382 C26.5005855,2.08937341 28.212751,2.51816655 29.9267556,2.94801258 C32.0679477,3.80586209 34.2096653,5.09329441 35.9226191,6.80951986 C37.6358354,8.52600854 38.9213389,10.6718168 40.2055286,12.8173618 C41.0625309,14.5338505 41.4912949,16.6793956 41.9190078,18.3958843 C41.9888921,19.3721849 41.9836378,20.3511178 41.9211097,21.325839 M23.0352697,40.5517759 C27.6253025,39.8144833 31.5023052,37.2011878 34.6481499,33.6563399 C35.5038386,32.3691708 36.185342,31.1743936 37.0418189,29.8872246 C38.0906089,27.2607678 38.0220382,24.9193836 38.3528064,23.2618572 C38.7813075,20.2579363 37.7842738,17.8412697 36.9283225,15.2661419 C35.6433446,12.2624841 33.940637,10.0153343 30.9427053,8.29884557 C23.3789114,3.51236648 13.0904175,4.85770825 8.16147204,12.015316 C8.14124237,12.0208438 7.99700747,12.2122081 7.72955551,12.5773009 C8.08265516,11.1011364 8.93913201,10.2427605 9.79560886,9.38412125 C12.3658276,7.23857623 15.3634965,5.52261399 18.7901921,4.66397482 C22.6453888,4.23465523 26.5005855,4.66397482 29.9267556,6.38072672 C35.0661422,9.38412125 38.4925749,14.104531 39.3490519,19.6833166 L39.3490519,24.8325194 C38.2968464,33.2667673 31.2114709,39.6823445 23.0352697,40.5517759 M42.473616,18.9249661 C42.3924346,17.8704876 42.1336525,16.4890841 41.7337881,15.1455848 C40.9343222,12.4491104 39.5700018,9.90530628 37.606936,7.69869312 C36.6198858,6.59078009 35.483609,5.56788866 33.7985038,4.35863409 C31.9037458,3.37812184 30.8108183,2.75875398 30.0058352,2.27810557 C29.2003266,1.79772038 28.212751,1.23126068 26.9285612,0.801941093 C25.3756059,0.426319356 23.8223876,0.225215636 22.2907128,0.185995146 C20.7571988,0.146511432 19.2439146,0.269963846 17.7679371,0.542401477 C16.2210243,0.801941093 14.9349954,1.23126068 13.2223044,1.66005382 C9.36763318,3.37680573 6.36996418,5.95140714 3.79948274,9.38412125 C-5.1951005,22.2584444 2.94326862,40.2817073 17.9337153,42.4277787 C20.4075147,42.7812895 22.8613472,42.6359896 25.2048359,42.0863762 L26.852897,41.6302077 C26.9162133,41.6102026 26.9787414,41.5865123 27.0417949,41.5654543 L28.9347137,40.8334263 C29.0285059,40.7918369 29.1215098,40.7465622 29.2145138,40.7044462 L29.9992672,40.3243496 C31.5080851,39.5546805 32.9299417,38.6123358 34.2272677,37.5210058 C33.0486925,38.6299718 31.7608246,39.6123266 30.3815291,40.4391157 L30.4490489,40.5012366 L30.4466843,40.5043954 C30.6999493,40.4230589 30.9542652,40.3454076 31.2114709,40.2817073 C31.2114709,40.2817073 31.2114709,40.7099739 31.1678589,40.6170557 C30.7472394,40.9213434 31.4040469,40.6549599 32.2418703,40.200634 C33.0849483,39.7444654 33.8883552,39.2082766 34.6371156,38.564692 C35.7087625,37.6349822 36.6721676,36.6342017 37.9926132,34.9982597 C39.3490519,32.5571133 41.0625309,30.411305 41.8430808,27.5450506 C42.103702,26.7830148 42.3443563,25.8819966 42.51066,24.9580776 C42.6772263,24.0336322 42.7689166,23.0876026 42.7707557,22.1155134 C42.7728575,21.1428979 42.6872098,20.1439599 42.473616,18.9249661" id="Fill-12" fill="#221F20"></path>
                <path d="M31.362617,21.3894457 C31.362617,26.7073755 26.9995768,31.0184707 21.6145442,31.0184707 C16.2324017,31.0184707 11.8683106,26.7073755 11.8683106,21.3894457 C11.8683106,16.0720421 16.2324017,11.7606838 21.6145442,11.7606838 C26.9995768,11.7606838 31.362617,16.0720421 31.362617,21.3894457" id="Fill-13" fill="#FEFEFE"></path>
                <path d="M30.8283683,23.2408953 C30.6415722,24.0500483 30.4531999,24.8586747 30.2658783,25.6691437 C29.8807265,26.6812429 29.2951171,27.6993963 28.5045836,28.5188151 C27.7140502,29.3382338 26.7180675,29.9586546 25.7241865,30.5809178 C24.9273478,30.9973394 23.9247971,31.214763 23.1248055,31.4308706 C22.6513789,31.4724602 22.0965079,31.2610906 21.6222931,31.236874 C27.4416066,31.0797288 31.4523352,25.5246333 30.5727388,20.0219198 C30.1442376,18.4175647 29.3156094,17.020631 28.2873117,15.6279087 C27.874574,15.0306518 27.0635482,14.6413423 26.4508783,14.0469808 C22.7906219,11.6919088 17.9738592,12.1762424 15.2092255,15.2454432 C14.8309045,15.6371216 14.4562615,16.0772334 14.1233916,16.5389296 C15.5867585,14.3381074 17.949426,12.7863974 20.7910376,12.3304921 C21.7956902,12.3128561 22.804809,12.4976398 23.8134025,12.6821604 C28.2597258,14.0167099 31.5508563,18.3933482 30.8283683,23.2408953 M20.0879909,30.2729448 C16.0943392,29.8415196 13.0212688,26.5069882 12.5888267,22.6270552 C12.9537489,24.7949743 14.2284807,26.4556594 15.9382818,27.9265594 C16.5475363,28.3187641 17.4413198,28.8725892 18.0510997,29.265847 C19.0633714,29.6509448 19.6826093,30.078685 20.6909401,30.2621527 C20.6925164,30.2632056 20.6940928,30.2621527 20.6954065,30.2632056 C20.492847,30.266101 20.2905503,30.2697862 20.0879909,30.2729448 M25.0287589,15.0346001 C25.9228051,15.5647348 26.048124,15.6392274 25.578638,15.3065113 C26.2727521,15.4607611 26.6823372,15.8566511 27.0911342,16.2525411 C28.1162791,17.4438963 28.9441191,18.840567 29.3734084,20.4451851 C29.6051301,22.2543288 29.4351483,24.0700534 28.6574883,25.6952029 C27.2915918,28.1363494 25.1075758,29.7849262 22.501364,30.2324083 C22.2023854,30.237936 21.9034065,30.242674 21.6054787,30.2471488 C22.3334839,30.1042179 22.8142671,29.6312029 24.1488997,29.1300229 C25.5812652,28.5906754 27.2332672,26.1518979 28.0138171,24.7286417 C30.3617721,20.8605538 27.6223599,17.2854351 25.0287589,15.0346001 M31.2968033,19.9316336 C31.1622891,19.2056597 30.9513226,18.6047175 30.7364152,17.8031982 C29.9020071,16.0043202 28.6716755,14.6142302 27.0430559,13.4331407 C20.9402643,9.30551313 12.5617663,13.275469 11.6763899,20.3422641 C11.3269684,23.1232338 12.295628,25.8294477 14.0356421,27.8786525 C13.5038908,27.318247 12.9327311,26.7341511 12.537333,26.075826 L12.4829494,26.1411058 C12.544952,26.3095696 12.7404179,26.395381 12.7866571,26.5683196 C12.7866571,26.5683196 12.5861995,26.572268 12.6290234,26.5506835 C12.4840002,26.3553707 12.61326,26.6622907 12.8321082,27.0529164 C13.0527955,27.4453845 13.310264,27.8191636 13.6179126,28.1660938 C14.0613889,28.6622726 14.5382311,29.1079122 15.315891,29.715698 C16.470033,30.3340131 17.4886099,31.1223711 18.8374295,31.4671957 C19.1963092,31.5840675 19.6208695,31.6898838 20.0546252,31.7609545 C20.4889061,31.831762 20.9331707,31.8678237 21.3876814,31.8601902 C21.8437685,31.8543993 22.3111525,31.8057026 22.8809987,31.6956747 C23.3741298,31.6493472 24.0191146,31.5166819 24.6449207,31.3176839 C25.9028381,30.9196881 27.0829898,30.2579411 28.1018293,29.3177022 C28.6125627,28.8452137 29.3100923,28.2390072 29.863124,27.4364348 C30.3073886,26.5383119 30.3617721,26.0824067 30.5806204,25.7004676 C30.7992059,25.3180019 31.0564117,24.848409 31.2481996,24.2414127 C31.4110878,23.5083318 31.4933201,22.7765669 31.4996254,22.0558574 C31.5051426,21.3340952 31.4355209,20.623125 31.2968033,19.9316336" id="Fill-14" fill="#D6DF23"></path>
            </g>
        </g>
    </g>
</svg>