<?xml version="1.0" encoding="UTF-8" standalone="no"?>
<svg width="33px" height="33px" viewBox="0 0 33 33" version="1.1" xmlns="http://www.w3.org/2000/svg" xmlns:xlink="http://www.w3.org/1999/xlink">
    <!-- Generator: Sketch 3.8.3 (29802) - http://www.bohemiancoding.com/sketch -->
    <title>Group 19</title>
    <desc>Created with Sketch.</desc>
    <defs></defs>
    <g id="Page-1" stroke="none" stroke-width="1" fill="none" fill-rule="evenodd">
        <g id="Group-19">
            <path d="M16.5,33 C25.6126984,33 33,25.6126984 33,16.5 C33,7.38730163 25.6126984,0 16.5,0 C7.38730163,0 0,7.38730163 0,16.5 C0,25.6126984 7.38730163,33 16.5,33 Z" id="Oval-75" fill="#ABADAF"></path>
            <path d="M6.27240421,16.7492559 C6.27240421,16.7492559 5.47525994,9.99694663 9.64995241,9.24455827 C13.8246449,8.49216991 23.4033446,9.24455826 23.4033446,9.24455826 C23.4033446,9.24455826 27.1894227,9.45534069 26.8635254,16.1482786 C26.5376281,22.8412166 24.806513,23.439342 22.9884144,23.6470132 C21.1703157,23.8546843 12.8026527,23.9128899 9.40575679,23.577919 C6.00886088,23.2429481 6.27240421,16.7492559 6.27240421,16.7492559 Z" id="Path-907" fill="#FFFFFF"></path>
            <polygon id="Path-906" fill="#ABADAF" points="14.4990265 20.5907921 14.5221012 12.326317 20.6733036 16.5156578"></polygon>
        </g>
    </g>
</svg>