<svg width="180" height="156" viewBox="0 0 180 156" xmlns="http://www.w3.org/2000/svg" xmlns:xlink="http://www.w3.org/1999/xlink"><title>Page 1</title><defs><path id="a" d="M.677.664h58.395v103.673H.677V.664z"/></defs><g fill="none" fill-rule="evenodd"><path d="M180 144.273c0 6.11-40.294 11.063-90 11.063s-90-4.953-90-11.063 40.294-11.063 90-11.063 90 4.953 90 11.063z" fill="#EDEEEF"/><path d="M29.72 143.457h136.956V26.265H7.89v95.364c0 12.055 9.773 21.827 21.83 21.827" fill="#C3EA9B"/><path d="M27.296 143.457h136.958V26.265H5.468v95.364c0 12.055 9.772 21.827 21.828 21.827" fill="#96D15F"/><path d="M164.254 116.632s-14.404 3.525-14.404 9.614c0 6.09 14.404 11.774 14.404 11.774v-21.388z" fill="#BFDDF0"/><path d="M27.296 143.457h4.143L18.452 119.11l4.306-92.845H5.467v95.364c0 12.055 9.772 21.827 21.828 21.827" fill="#C3EA9B"/><path d="M33.563 39.69c-3.654-.84-15.52 8.06-12.448 19.336 3.072 11.275 6.325 19.378 13.726 12.11 7.996-7.85 6.474-29.665-1.278-31.446M43.672 132.653c4.563-6.24-2.925-13.077-17.854-18.376-11.633-4.13-3.332-16.83-3.332-16.83s-6.525.793-14.596 4.007v20.175c0 12.055 9.773 21.828 21.83 21.828h30.096s-20.707-4.565-16.144-10.805" fill="#BFDDF0"/><path d="M29.825 101.226c-12.115 0-21.936 9.82-21.936 21.936V27.9c0-12.192 8.08-22.116 20.182-22.485.232-.006 2.078-.01 2.31-.01v95.82h-.557z" fill="#C3EA9B"/><path d="M27.402 101.226c-12.114 0-21.935 9.82-21.935 21.936V27.9c0-12.424 10.07-22.495 22.494-22.495v95.82h-.558z" fill="#8ABF51"/><path d="M39.207 103.45c1.49 6.258-.096 16.854 13.19 22.092 20.05 7.904 12.522-31.666 49.8.378 16.413 14.107 44.858-3.882 40.6-22.47-4.257-18.587 13.766-48.462-15.332-58.6-31.667-11.032-32.467 46.082-53.03 31.458-20.565-14.623-40.377 5.51-35.228 27.142" fill="#FF0" opacity=".4"/><path d="M39.207 103.45c1.49 6.258-.096 16.854 13.19 22.092 20.05 7.904 12.522-31.666 49.8.378 16.413 14.107 44.858-3.882 40.6-22.47-4.257-18.587 13.766-48.462-15.332-58.6-31.667-11.032-32.467 46.082-53.03 31.458-20.565-14.623-40.377 5.51-35.228 27.142z" stroke="#5E8927" stroke-width="2.419"/><path d="M122.06 26.265s14.743 4.977 17.973 13.05c3.23 8.074 19.915 2.796 16.147 20.237-3.767 17.442 8.074 24.492 8.074 24.492v-57.78H122.06z" fill="#BFDDF0"/><path d="M73.327 143.457s8.105-12.89 18.1-13.39c9.994-.502 15.326 10.42 45.153 13.39H73.327zM41.544 26.265s-7.796 4.202-3.302 9.82c32.125 40.164 30.385-4.642 40.78 1.817 10.392 6.46 29.496 2.225 32.874-11.637H41.544z" fill="#8ACC5A"/><path fill="#E1F1F9" d="M164.254 84.044l2.422.816V26.265h-2.422"/><g transform="translate(66 -.664)"><mask id="b" fill="#fff"><use xlink:href="#a"/></mask><path d="M50.868 104.337H8.88c-4.53 0-8.203-3.673-8.203-8.204V8.868C.677 4.338 4.35.663 8.88.663H50.87c4.53 0 8.204 3.674 8.204 8.205v87.265c0 4.53-3.673 8.204-8.204 8.204" fill="#242F35" mask="url(#b)"/></g><path fill="#FFF" d="M70.397 91.38h50.956V12.293H70.397"/><path d="M110.583 39.966c0 8.124-6.585 14.71-14.71 14.71-8.122 0-14.707-6.586-14.707-14.71 0-8.123 6.585-14.708 14.708-14.708 8.124 0 14.71 6.585 14.71 14.708" fill="#88BF6F"/><path d="M116.68 84.118H76.235c-.897 0-1.63-.733-1.63-1.63v-7.415c0-.896.733-1.63 1.63-1.63h40.447c.898 0 1.632.734 1.632 1.63v7.415c0 .897-.734 1.63-1.63 1.63" fill="#242F35"/><path d="M95.874 92.847c-2.415 0-4.373 1.958-4.373 4.373s1.96 4.373 4.374 4.373c2.415 0 4.373-1.958 4.373-4.373s-1.958-4.373-4.373-4.373m0 .732c2.008 0 3.64 1.632 3.64 3.64 0 2.007-1.632 3.64-3.64 3.64-2.007 0-3.64-1.633-3.64-3.64 0-2.008 1.633-3.64 3.64-3.64" fill="#435056"/><path stroke="#FFF" stroke-width="3.523" stroke-linecap="round" stroke-linejoin="round" d="M90.237 40.544l3.743 3.172 7.09-7.5"/></g></svg>