<?xml version="1.0" encoding="UTF-8" standalone="no"?>
<svg width="48px" height="33px" viewBox="0 0 48 33" version="1.1" xmlns="http://www.w3.org/2000/svg" xmlns:xlink="http://www.w3.org/1999/xlink">
    <!-- Generator: Sketch 44.1 (41455) - http://www.bohemiancoding.com/sketch -->
    <title>car time</title>
    <desc>Created with Sketch.</desc>
    <defs></defs>
    <g id="Warangal-Route" stroke="none" stroke-width="1" fill="none" fill-rule="evenodd">
        <g id="Warangal---Route-Description-Tab" transform="translate(-443.000000, -1055.000000)" fill-rule="nonzero" fill="#9B9B9B">
            <g id="Route-Information" transform="translate(148.000000, 929.000000)">
                <g id="Heading-and-Sub">
                    <g id="Route-Detals" transform="translate(0.000000, 121.000000)">
                        <g id="time" transform="translate(295.000000, 0.000000)">
                            <g id="car-time" transform="translate(0.000000, 5.000000)">
                                <path d="M12.54,0.377142857 C8.58,0.377142857 5.32714286,3.58285714 5.32714286,7.59 C5.32714286,11.55 8.53285714,14.8028571 12.54,14.8028571 C16.5,14.8028571 19.7528571,11.5971429 19.7528571,7.59 C19.7057143,3.63 16.5,0.377142857 12.54,0.377142857 Z M12.54,12.87 C9.61714286,12.87 7.21285714,10.5128571 7.21285714,7.54285714 C7.21285714,4.62 9.57,2.21571429 12.54,2.21571429 C15.51,2.21571429 17.8671429,4.57285714 17.8671429,7.54285714 C17.82,10.5128571 15.4628571,12.87 12.54,12.87 Z" id="Shape"></path>
                                <path d="M16.6885714,7.59 C16.6885714,7.07142857 16.2642857,6.64714286 15.7457143,6.64714286 L13.4828571,6.64714286 L13.4828571,4.38428571 C13.4828571,3.86571429 13.0585714,3.44142857 12.54,3.44142857 C12.0214286,3.44142857 11.5971429,3.86571429 11.5971429,4.38428571 L11.5971429,7.59 C11.5971429,8.10857143 12.0214286,8.53285714 12.54,8.53285714 L15.7457143,8.53285714 C16.2642857,8.53285714 16.6885714,8.10857143 16.6885714,7.59 Z" id="Shape"></path>
                                <path d="M47.0014286,20.3657143 C46.2471429,16.4057143 43.3714286,15.3685714 39.6942857,14.52 C36.2528571,13.6714286 33.3771429,12.1628571 30.6428571,10.7485714 C27.5785714,9.14571429 24.6557143,7.59 21.12,6.97714286 C21.12,7.21285714 21.1671429,7.40142857 21.1671429,7.63714286 C21.1671429,8.06142857 21.12,8.48571429 21.0728571,8.91 C24.2314286,9.52285714 26.9657143,10.9371429 29.7942857,12.4457143 C32.67,13.9542857 35.64,15.51 39.27,16.4057143 C43.4185714,17.3957143 44.6914286,18.3385714 45.1628571,20.79 C45.4928571,22.44 45.0214286,24.1371429 43.9371429,25.2685714 C43.5128571,25.74 43.0885714,25.9757143 42.7585714,25.9757143 L42.6171429,25.9757143 C42.1457143,23.2414286 39.7885714,21.12 36.9128571,21.12 C34.0371429,21.12 31.68,23.2414286 31.2085714,25.9757143 L15.6985714,25.9757143 C15.2271429,23.2414286 12.87,21.12 9.99428571,21.12 C7.40142857,21.12 5.18571429,22.8171429 4.47857143,25.1742857 C2.92285714,24.2314286 1.88571429,22.5342857 1.88571429,20.6014286 L1.88571429,15.6985714 C1.88571429,13.53 2.87571429,11.5971429 4.38428571,10.2771429 C4.14857143,9.61714286 4.00714286,8.91 3.96,8.20285714 C1.55571429,9.85285714 -1.77635684e-15,12.5871429 -1.77635684e-15,15.6985714 L-1.77635684e-15,20.5071429 C-1.77635684e-15,23.43 1.74428571,25.9285714 4.19571429,27.1071429 C4.33714286,30.1714286 6.88285714,32.6228571 9.99428571,32.6228571 C12.87,32.6228571 15.2271429,30.5014286 15.6985714,27.7671429 L31.2085714,27.7671429 C31.68,30.5014286 34.0371429,32.6228571 36.9128571,32.6228571 C39.7885714,32.6228571 42.1457143,30.5014286 42.6171429,27.7671429 L42.7585714,27.7671429 C43.6071429,27.7671429 44.4557143,27.3428571 45.3042857,26.4942857 C46.8128571,24.8914286 47.4257143,22.6285714 47.0014286,20.3657143 Z M9.99428571,30.7371429 C7.82571429,30.7371429 6.08142857,28.9928571 6.08142857,26.8242857 C6.08142857,24.6557143 7.82571429,22.9114286 9.99428571,22.9114286 C12.1628571,22.9114286 13.9071429,24.6557143 13.9071429,26.8242857 C13.9071429,28.9928571 12.1628571,30.7371429 9.99428571,30.7371429 Z M36.9128571,30.7371429 C34.7442857,30.7371429 33,28.9928571 33,26.8242857 C33,24.6557143 34.7442857,22.9114286 36.9128571,22.9114286 C39.0814286,22.9114286 40.8257143,24.6557143 40.8257143,26.8242857 C40.8257143,28.9928571 39.0814286,30.7371429 36.9128571,30.7371429 Z" id="Shape"></path>
                            </g>
                        </g>
                    </g>
                </g>
            </g>
        </g>
    </g>
</svg>