<svg width="154" height="164" viewBox="0 0 154 164" xmlns="http://www.w3.org/2000/svg" xmlns:xlink="http://www.w3.org/1999/xlink"><title>Page 1</title><defs><path id="a" d="M0 154.076v-154h154v154z"/><path id="c" d="M0 132.076V.628h131.447v131.448z"/></defs><g fill="none" fill-rule="evenodd"><path d="M148.03 154.77c0 5.056-31.8 9.153-71.03 9.153-39.23 0-71.03-4.097-71.03-9.153 0-5.055 31.8-9.153 71.03-9.153 39.23 0 71.03 4.098 71.03 9.153" fill="#EDEEEF"/><g transform="translate(0 -.076)"><mask id="b" fill="#fff"><use xlink:href="#a"/></mask><path d="M131.447 131.523c-30.07 30.07-78.824 30.07-108.895 0-30.07-30.07-30.07-78.824 0-108.895 30.07-30.07 78.825-30.07 108.895 0 30.07 30.07 30.07 78.825 0 108.895" fill="#FFE8A1" mask="url(#b)"/></g><g transform="translate(0 21.924)"><mask id="d" fill="#fff"><use xlink:href="#c"/></mask><path d="M131.447 109.523c-30.07 30.07-78.824 30.07-108.895 0-30.07-30.07-30.07-78.824 0-108.895" fill="#E3A753" mask="url(#d)"/></g><path d="M128.51 128.51c-28.447 28.45-74.572 28.45-103.02 0-28.45-28.447-28.45-74.572 0-103.02 28.448-28.45 74.573-28.45 103.02 0 28.45 28.448 28.45 74.573 0 103.02" fill="#FED970"/><path d="M118.01 118.01c-22.65 22.647-59.37 22.647-82.02 0-22.647-22.65-22.647-59.37 0-82.02 22.65-22.647 59.37-22.647 82.02 0 22.647 22.65 22.647 59.37 0 82.02" fill="#E2A752"/><path d="M114.947 114.947c-20.957 20.958-54.937 20.958-75.895 0-20.957-20.958-20.957-54.937 0-75.895 20.958-20.958 54.938-20.958 75.895 0 20.958 20.958 20.958 54.937 0 75.895" fill="#F6C250"/><path fill="#E2A752" d="M107.145 76.245L77.1 46.2 46.855 76.448l9.863 9.866 13.307-13.305v42.535h13.95V72.805L97.28 86.11"/><path fill="#FED870" d="M107.145 72.17L77.1 42.13 46.855 72.374l9.863 9.865 13.307-13.306v42.535h13.95V68.73L97.28 82.037"/><path fill="#FFF" d="M128.52 10.647L22.474 137.97l2.97 1.687 119.223-121.04"/><path fill="#E3A753" d="M24.912 133.895l1.78 1.603 98.676-118.563-1.715-1.353"/></g></svg>