<svg width="180" height="149" viewBox="0 0 180 149" xmlns="http://www.w3.org/2000/svg"><title>Page 1</title><g fill="none" fill-rule="evenodd"><path d="M180 138.474c0 5.446-37.792 9.86-84.41 9.86-46.618 0-84.41-4.414-84.41-9.86s37.792-9.86 84.41-9.86c46.618 0 84.41 4.414 84.41 9.86z" fill="#EDEEEF"/><path d="M36.232 49.536c.504 1.218-.074 2.614-1.292 3.118-1.22.505-2.615-.074-3.12-1.292l-1.76-4.253c-.504-1.22.075-2.615 1.293-3.12 1.218-.504 2.614.074 3.118 1.293l1.762 4.253zm4.93 11.908c.504 1.218-.075 2.614-1.293 3.118-1.22.504-2.615-.074-3.12-1.292l-1.76-4.254c-.504-1.217.075-2.614 1.292-3.118 1.22-.505 2.615.075 3.12 1.292l1.76 4.254zm4.93 11.907c.504 1.22-.075 2.616-1.293 3.12-1.22.504-2.615-.074-3.12-1.292l-1.76-4.253c-.504-1.22.074-2.615 1.292-3.118 1.218-.505 2.614.074 3.12 1.29l1.76 4.254zm4.93 11.91c.503 1.217-.075 2.614-1.293 3.118-1.22.505-2.616-.074-3.12-1.292l-1.76-4.253c-.505-1.218.074-2.614 1.292-3.118s2.614.074 3.12 1.293l1.76 4.252zm4.93 11.908c.503 1.218-.075 2.614-1.294 3.118-1.218.504-2.614-.074-3.118-1.292l-1.76-4.253c-.505-1.217.074-2.613 1.292-3.117 1.218-.505 2.614.074 3.118 1.292l1.76 4.253zm77.22-71.983L122.747 0 31.33 37.717c.44 1.196-.132 2.537-1.32 3.03-1.19.49-2.542-.053-3.075-1.212L.91 50.31 0 52.505l11.335 22.986c6.172-2.555 13.248.377 15.803 6.55 2.555 6.172-.377 13.247-6.55 15.802l-.91 2.196 11.336 22.987 25.583-8.77.91-2.198c-.45-.253-.825-.644-1.037-1.158l-1.76-4.253c-.505-1.22.073-2.615 1.292-3.12 1.218-.504 2.614.074 3.118 1.293l1.76 4.253c.213.514.224 1.056.085 1.552l90.975-35.714.91-2.196-10.426-25.186c-6.16 2.52-13.205-.41-15.753-6.566-2.4-5.804-1.078-11.343 5.592-13.584l.91-2.197z" fill="#FED970"/><path d="M111.758 71.855l25.28 8.964 14.903-5.905.91-2.197-10.425-25.185c-6.16 2.52-13.205-.41-15.753-6.567-2.402-5.803-1.08-11.342 5.59-13.584l.91-2.196L122.748 0l-.91 2.197-10.08 69.658z" fill="#FFE8A1"/><path d="M35.322 51.733c.504 1.22-.074 2.614-1.292 3.117-1.22.505-2.615-.074-3.12-1.29l-1.76-4.255c-.504-1.218.074-2.614 1.293-3.118 1.218-.505 2.614.074 3.118 1.293l1.762 4.253zm4.93 11.908c.504 1.22-.075 2.614-1.293 3.118-1.22.505-2.615-.073-3.12-1.29l-1.76-4.256c-.505-1.217.074-2.614 1.292-3.118 1.22-.504 2.615.075 3.12 1.292l1.76 4.255zm4.93 11.907c.504 1.22-.075 2.615-1.293 3.12-1.22.504-2.615-.075-3.12-1.293l-1.76-4.252c-.505-1.22.074-2.615 1.292-3.118 1.218-.505 2.614.073 3.12 1.29l1.76 4.254zm4.93 11.91c.503 1.218-.075 2.614-1.293 3.118-1.22.504-2.616-.075-3.12-1.293l-1.76-4.25c-.505-1.22.074-2.615 1.292-3.12 1.218-.505 2.614.073 3.12 1.292l1.76 4.253zm4.93 11.908c.503 1.218-.075 2.614-1.294 3.118-1.218.504-2.614-.075-3.118-1.293l-1.76-4.252c-.505-1.22.074-2.615 1.292-3.118 1.218-.505 2.614.074 3.118 1.292l1.76 4.253zm77.22-71.983L121.837 2.196 30.42 39.915c.44 1.195-.132 2.536-1.32 3.03-1.19.49-2.542-.053-3.075-1.213L0 52.507 10.425 77.69c6.172-2.556 13.247.377 15.802 6.55 2.555 6.17-.377 13.246-6.55 15.8l10.427 25.183 26.493-10.968c-.45-.25-.825-.642-1.037-1.156l-1.76-4.254c-.505-1.22.073-2.615 1.292-3.12 1.218-.504 2.614.076 3.118 1.293l1.76 4.252c.213.514.224 1.056.085 1.552l91.885-37.91-10.427-25.186c-6.16 2.52-13.204-.41-15.752-6.566-2.547-6.157.364-13.207 6.502-15.78z" fill="#F6C250"/><path d="M35.322 51.733c.504 1.22-.074 2.614-1.292 3.117-1.22.505-2.615-.074-3.12-1.29l-1.76-4.255c-.504-1.218.074-2.614 1.293-3.118 1.218-.505 2.614.074 3.118 1.293l1.762 4.253zm4.93 11.908c.504 1.22-.075 2.614-1.293 3.118-1.22.505-2.615-.073-3.12-1.29l-1.76-4.256c-.505-1.217.074-2.614 1.292-3.118 1.22-.504 2.615.075 3.12 1.292l1.76 4.255zm4.93 11.907c.504 1.22-.075 2.615-1.293 3.12-1.22.504-2.615-.075-3.12-1.293l-1.76-4.252c-.505-1.22.074-2.615 1.292-3.118 1.218-.505 2.614.073 3.12 1.29l1.76 4.254zm4.93 11.91c.503 1.218-.075 2.614-1.293 3.118-1.22.504-2.616-.075-3.12-1.293l-1.76-4.25c-.505-1.22.074-2.615 1.292-3.12 1.218-.505 2.614.073 3.12 1.292l1.76 4.253zm4.93 11.908c.503 1.218-.075 2.614-1.294 3.118-1.218.504-2.614-.075-3.118-1.293l-1.76-4.252c-.505-1.22.074-2.615 1.292-3.118 1.218-.505 2.614.074 3.118 1.292l1.76 4.253zm70.105-74.194l-6.413-15.49L7.484 55.608l6.404 15.47c7.407-.48 14.64 3.74 17.632 10.97 2.993 7.23.86 15.326-4.72 20.22l6.405 15.472 20.724-8.58-.13-.314c-.505-1.22.073-2.615 1.292-3.12 1.218-.504 2.614.076 3.118 1.293l.13.315 86.116-35.522-6.413-15.492c-7.387.452-14.595-3.77-17.575-10.967-2.98-7.197-.864-15.277 4.68-20.181z" fill="#FED970"/><path d="M82.768 44.96l-8.062 3.337c1.73.634 3.243 1.884 4.414 3.862l5.66-2.344 1.263 3.055-5.658 2.344c1.422 5.277-1.27 9.97-6.753 12.592 5.16 2.262 11.368 5.5 17.427 8.798L84.4 79.36c-5.036-2.666-10.728-5.647-16.94-8.47l-1.742-4.208 2.953-1.223c4.76-1.97 6.495-4.86 5.856-7.82L63.81 62.074l-1.264-3.054 10.515-4.353c-1.683-1.942-4.475-2.31-8.33-.715l-3.656 1.514-1.804-4.358 22.233-9.204 1.265 3.055zM98.123 73.925L95.59 36.65l3.88-1.607 2.534 37.276M114.198 52.485l-8.155 3.376-1.547-3.735 8.154-3.377" fill="#E2A752"/><path d="M64.717 67.636c0 1.32-1.068 2.388-2.387 2.388-1.318 0-2.387-1.07-2.387-2.388v-4.603c0-1.32 1.07-2.387 2.387-2.387 1.32 0 2.387 1.068 2.387 2.387v4.603zm0 12.89c0 1.317-1.068 2.385-2.387 2.385-1.318 0-2.387-1.067-2.387-2.385V75.92c0-1.317 1.07-2.386 2.387-2.386 1.32 0 2.387 1.07 2.387 2.387v4.605zm0 12.886c0 1.32-1.068 2.387-2.387 2.387-1.318 0-2.387-1.07-2.387-2.388V88.81c0-1.32 1.07-2.388 2.387-2.388 1.32 0 2.387 1.068 2.387 2.387v4.602zm0 12.888c0 1.318-1.068 2.387-2.387 2.387-1.318 0-2.387-1.07-2.387-2.387v-4.602c0-1.32 1.07-2.387 2.387-2.387 1.32 0 2.387 1.07 2.387 2.388v4.602zm0 12.888c0 1.318-1.068 2.387-2.387 2.387-1.318 0-2.387-1.07-2.387-2.387v-4.603c0-1.318 1.07-2.386 2.387-2.386 1.32 0 2.387 1.067 2.387 2.385v4.603zm102.506-37.09V54.84H64.708c-.05 1.275-1.09 2.295-2.378 2.295-1.287 0-2.328-1.02-2.378-2.295H31.785l-1.68 1.682 1.68 25.574c6.68 0 12.096 5.415 12.096 12.096 0 6.68-5.414 12.094-12.095 12.094l-1.68 1.682 1.68 25.574 26.993 1.682 1.68-1.682c-.317-.405-.515-.91-.515-1.466v-4.602c0-1.318 1.07-2.388 2.387-2.388 1.32 0 2.387 1.07 2.387 2.388v4.602c0 .556-.197 1.06-.516 1.466l101.342 1.682 1.68-1.682v-27.258c-6.654-.028-12.042-5.43-12.042-12.092 0-6.282 3.342-10.894 10.362-10.412l1.68-1.68z" fill="#66A032"/><path d="M133.87 117.026l15.644 17.952 16.028.245 1.68-1.68v-27.26c-6.655-.028-12.042-5.43-12.042-12.092 0-6.28 3.34-10.893 10.362-10.41l1.68-1.682v-27.26l-1.68 1.682-31.672 60.506z" fill="#A2DB71"/><path d="M63.036 69.317c0 1.32-1.068 2.388-2.387 2.388-1.32 0-2.388-1.07-2.388-2.388v-4.603c0-1.32 1.068-2.386 2.387-2.386 1.318 0 2.386 1.067 2.386 2.385v4.605zm0 12.89c0 1.317-1.068 2.385-2.387 2.385-1.32 0-2.388-1.07-2.388-2.386V77.6c0-1.316 1.068-2.385 2.387-2.385 1.318 0 2.386 1.07 2.386 2.386v4.606zm0 12.886c0 1.32-1.068 2.388-2.387 2.388-1.32 0-2.388-1.07-2.388-2.388V90.49c0-1.32 1.068-2.387 2.387-2.387 1.318 0 2.386 1.07 2.386 2.388v4.603zm0 12.888c0 1.32-1.068 2.388-2.387 2.388-1.32 0-2.388-1.07-2.388-2.386v-4.603c0-1.32 1.068-2.388 2.387-2.388 1.318 0 2.386 1.07 2.386 2.387v4.602zm0 12.89c0 1.317-1.068 2.385-2.387 2.385-1.32 0-2.388-1.067-2.388-2.385v-4.604c0-1.318 1.068-2.386 2.387-2.386 1.318 0 2.386 1.07 2.386 2.386v4.603zm102.506-37.09V56.522H63.027c-.05 1.275-1.09 2.294-2.378 2.294s-2.33-1.02-2.38-2.294H30.105v27.255c6.68 0 12.096 5.415 12.096 12.096 0 6.68-5.415 12.094-12.096 12.094v27.257h28.674c-.318-.406-.516-.91-.516-1.466v-4.603c0-1.32 1.068-2.388 2.387-2.388 1.318 0 2.386 1.07 2.386 2.388v4.602c0 .556-.197 1.06-.516 1.466h103.022v-27.26c-6.656-.026-12.043-5.427-12.043-12.09s5.386-12.066 12.042-12.094z" fill="#80C14D"/><path d="M63.036 69.317c0 1.32-1.068 2.388-2.387 2.388-1.32 0-2.388-1.07-2.388-2.388v-4.603c0-1.32 1.068-2.386 2.387-2.386 1.318 0 2.386 1.067 2.386 2.385v4.605zm0 12.89c0 1.317-1.068 2.385-2.387 2.385-1.32 0-2.388-1.07-2.388-2.386V77.6c0-1.316 1.068-2.385 2.387-2.385 1.318 0 2.386 1.07 2.386 2.386v4.606zm0 12.886c0 1.32-1.068 2.388-2.387 2.388-1.32 0-2.388-1.07-2.388-2.388V90.49c0-1.32 1.068-2.387 2.387-2.387 1.318 0 2.386 1.07 2.386 2.388v4.603zm0 12.888c0 1.32-1.068 2.388-2.387 2.388-1.32 0-2.388-1.07-2.388-2.386v-4.603c0-1.32 1.068-2.388 2.387-2.388 1.318 0 2.386 1.07 2.386 2.387v4.602zm0 12.89c0 1.317-1.068 2.385-2.387 2.385-1.32 0-2.388-1.067-2.388-2.385v-4.604c0-1.318 1.068-2.386 2.387-2.386 1.318 0 2.386 1.07 2.386 2.386v4.603zm96.777-41.855V62.252H35.833v16.743c7.026 2.39 12.095 9.053 12.095 16.88 0 7.825-5.07 14.49-12.095 16.88v16.742h22.43v-.34c0-1.32 1.067-2.388 2.386-2.388 1.318 0 2.386 1.07 2.386 2.388v.34h96.777v-16.767c-6.997-2.41-12.043-9.064-12.043-16.854 0-7.79 5.046-14.448 12.043-16.858z" fill="#96D15F"/><path d="M105.18 81.207h-8.726c1.355 1.247 2.277 2.98 2.602 5.257h6.124v3.306h-6.124C98.35 95.19 94.07 98.496 88 98.82c3.902 4.066 8.4 9.43 12.736 14.796h-7.208c-3.632-4.388-7.75-9.32-12.41-14.306v-4.554h3.196c5.15 0 7.86-2.005 8.4-4.986H81.117v-3.306h11.38c-.812-2.44-3.25-3.848-7.424-3.848h-3.956V77.9h24.063v3.307zM108.288 113.843l11.917-35.41h4.2l-11.917 35.41M122.514 100.184h8.826V96.14h-8.826" fill="#7AB744"/></g></svg>