<?xml version="1.0" encoding="UTF-8" standalone="no"?>
<svg width="193px" height="32px" viewBox="0 0 193 32" version="1.1" xmlns="http://www.w3.org/2000/svg" xmlns:xlink="http://www.w3.org/1999/xlink">
    <!-- Generator: Sketch 45.1 (43504) - http://www.bohemiancoding.com/sketch -->
    <title>Ola Logo</title>
    <desc>Created with Sketch.</desc>
    <defs></defs>
    <g id="V2-Share" stroke="none" stroke-width="1" fill="none" fill-rule="evenodd">
        <g id="Share" transform="translate(-150.000000, -48.000000)">
            <g id="Navigation">
                <g id="Ola-Logo" transform="translate(150.000000, 44.000000)">
                    <path d="M111.5,11.5976562 C110.279291,11.5976562 109.292973,11.902829 108.541016,12.5131836 C107.789059,13.1235382 107.413086,13.9096632 107.413086,14.871582 C107.413086,15.8335009 107.764645,16.5781224 108.467773,17.1054688 C109.170902,17.6328151 110.611317,18.2578089 112.789062,18.9804688 C114.966808,19.7031286 116.497554,20.4526328 117.381348,21.2290039 C118.265141,22.005375 118.707031,23.1503831 118.707031,24.6640625 C118.707031,26.1777419 118.155279,27.32275 117.051758,28.0991211 C115.948237,28.8754922 114.615242,29.2636719 113.052734,29.2636719 C109.888656,29.2636719 107.251964,28.3164157 105.142578,26.421875 L105.801758,25.3964844 C107.803721,27.1543057 110.142565,28.0332031 112.818359,28.0332031 C115.816421,28.0332031 117.31543,26.8857537 117.31543,24.5908203 C117.31543,23.4677678 116.951664,22.6108428 116.224121,22.0200195 C115.496578,21.4291963 114.290536,20.8554715 112.605957,20.2988281 C110.921378,19.7421847 109.791019,19.3442395 109.214844,19.1049805 C108.638669,18.8657215 108.069827,18.5459004 107.508301,18.1455078 C106.946775,17.7451152 106.561036,17.283694 106.351074,16.7612305 C106.141112,16.2387669 106.036133,15.586918 106.036133,14.8056641 C106.036133,13.5068294 106.536616,12.4472697 107.537598,11.6269531 C108.538579,10.8066365 109.859367,10.3964844 111.5,10.3964844 C113.853527,10.40625 116.011709,10.9091747 117.974609,11.9052734 L117.535156,12.9746094 C115.69921,12.056636 113.687511,11.5976562 111.5,11.5976562 Z M138.101562,29 L136.753906,29 L136.753906,20.2402344 L124.81543,20.2402344 L124.81543,29 L123.467773,29 L123.467773,10.7041016 L124.81543,10.7041016 L124.81543,18.9804688 L136.753906,18.9804688 L136.753906,10.7041016 L138.101562,10.7041016 L138.101562,29 Z M155.328125,22.4228516 L151.490234,13.7949219 C151.109373,12.8964799 150.835938,12.2031274 150.669922,11.7148438 C150.591796,11.9394542 150.33301,12.6328067 149.893555,13.7949219 L146.026367,22.4228516 L155.328125,22.4228516 Z M145.513672,23.6972656 L143.140625,29 L141.675781,29 L149.834961,10.7041016 L151.548828,10.7041016 L159.708008,29 L158.228516,29 L155.870117,23.6972656 L145.513672,23.6972656 Z M164.615234,21.0166016 L169.888672,21.0166016 C171.45118,21.0166016 172.737788,20.6015667 173.748535,19.7714844 C174.759282,18.9414021 175.264648,17.8574286 175.264648,16.5195312 C175.264648,13.4824067 173.345722,11.9638672 169.507812,11.9638672 L164.615234,11.9638672 L164.615234,21.0166016 Z M177.066406,29 L175.601562,29 L169.800781,22.2763672 L164.615234,22.2763672 L164.615234,29 L163.267578,29 L163.267578,10.7041016 L169.507812,10.7041016 C174.263696,10.7041016 176.641602,12.6425587 176.641602,16.5195312 C176.641602,18.023445 176.141118,19.2905222 175.140137,20.3208008 C174.139155,21.3510794 172.852547,21.9736317 171.280273,22.1884766 L177.066406,28.8535156 L177.066406,29 Z M192.842773,29 L180.962891,29 L180.962891,10.7041016 L192.535156,10.7041016 L192.535156,11.9638672 L182.310547,11.9638672 L182.310547,19.0390625 L191.333984,19.0390625 L191.333984,20.2988281 L182.310547,20.2988281 L182.310547,27.7402344 L192.842773,27.7402344 L192.842773,29 Z" id="SHARE" fill="#000000"></path>
                    <g id="Logo" transform="translate(0.000000, 4.000000)">
                        <g id="Text" transform="translate(41.000000, 6.000000)" fill="#000000">
                            <path d="M41.0202952,8.88489209 L35.0738007,18.9804728 L30,19 L41.0202952,0 L52,19 L46.8450185,19 L41.0202952,8.88489209 Z M25.3434343,14.5791107 L31,14.5791107 L28.3737374,19 L21,19 L21.020202,13.6163392 L21.020202,0 L25.3636364,0 L25.3434343,14.5791107 Z M9.51963466,0 C14.7711687,0.0196687371 19.0196006,4.26811594 18.999932,9.51966874 C18.9802633,14.7515528 14.7318313,19 9.48029732,19 C4.248432,18.9803313 0,14.7318841 0,9.48033126 C0.0196686666,4.2484472 4.26810066,0 9.51963466,0 Z M9.9902915,15 C12.7669213,15 14.9998754,12.7670181 14.9998754,10.0097709 C15.0192924,7.25252373 12.7669213,5.00012461 10.0097085,5.00012461 C7.25249566,4.98070737 5.00012461,7.23310649 5.00012461,9.99035369 C4.98070761,12.7476009 7.23307867,15 9.9902915,15 Z" id="Combined-Shape"></path>
                        </g>
                        <g id="Icon">
                            <path d="M32.7364527,14.1463321 C32.6756341,13.3520757 32.4729055,12.299686 32.1688124,11.2870091 C31.5606264,9.26165539 30.5064373,7.33558369 28.9859723,5.66764532 C28.2156033,4.83367613 27.34387,4.05927617 26.0464065,3.14588134 C24.5867601,2.4111942 23.7352997,1.93464038 23.1271137,1.57722501 C22.4986548,1.21980965 21.7485587,0.782968645 20.7551882,0.465266097 C19.559089,0.187276368 18.3629899,0.0284250939 17.1668907,0.00856868468 C15.9910644,-0.0311441338 14.8152381,0.0681379124 13.6799575,0.286558414 C12.4838584,0.485122506 11.4904879,0.802825054 10.1727515,1.1205276 C7.19264002,2.4111942 4.88153316,4.35712231 2.89479217,6.93845551 C-4.03852842,16.6482396 2.22578755,30.2498799 13.8015947,31.8582491 C15.7072443,32.1163824 17.6128938,32.0171004 19.417179,31.6001158 L20.6943696,31.2625568 C20.7349153,31.2427004 20.7957339,31.222844 20.8362797,31.222844 L22.2959261,30.6668645 C22.3770176,30.6271517 22.4378362,30.6072953 22.5189276,30.5675825 L23.1271137,30.2895928 C24.2826671,29.7137569 25.3976748,28.9989262 26.3910453,28.164957 C25.4787663,28.9989262 24.4853958,29.7336133 23.4312067,30.3690184 L23.4920253,30.4087312 C23.6947539,30.349162 23.8772097,30.2895928 24.0799384,30.2498799 C24.0799384,30.2498799 24.0799384,30.5675825 24.0393927,30.5080133 C23.7150268,30.7462902 24.2218485,30.5278697 24.8705802,30.1903107 C25.519312,29.8527518 26.1477709,29.4357672 26.7154112,28.9592133 C27.5465987,28.264239 28.2764219,27.5096955 29.3103382,26.2785981 C30.3645273,24.431952 31.6822636,22.8235829 32.2904496,20.6592343 C32.4931783,20.0833984 32.6756341,19.4082805 32.7972713,18.7133062 C32.9189085,18.0183319 33,17.3035011 33,16.568814 C32.9797271,15.8341268 32.8986357,15.0795833 32.7364527,14.1463321 L32.7364527,14.1463321 Z M17.6013289,30 C21.089701,29.4480776 24.0199336,27.4966377 26.4119601,24.8355833 C27.0697674,23.8697191 27.5880399,22.982701 28.2259136,22.0168368 C29.0232558,20.0456853 28.9634551,18.2913606 29.2225914,17.0495352 C29.5415282,14.8024226 28.7840532,12.9889633 28.1461794,11.0572349 C27.1694352,8.81012227 25.8737542,7.13464356 23.6013289,5.83368363 C17.8604651,2.24618805 10.0465116,3.25147527 6.31893688,8.61300712 C6.29900332,8.61300712 6.19933555,8.75098772 6,9.02694892 C6.25913621,7.92310413 6.91694352,7.27262416 7.57475083,6.64185571 C9.5282392,5.02551154 11.8006645,3.74426312 14.3920266,3.11349467 C17.3222591,2.79811044 20.2325581,3.11349467 22.8438538,4.39474309 C26.7508306,6.64185571 29.3421927,10.1702167 30,14.3490577 L30,18.2125145 C29.1827243,24.5399106 23.8006645,29.34952 17.6013289,30 L17.6013289,30 Z M31.9550363,16.1284883 C31.8151491,6.75099169 22.6825141,0.4261695 13.7896857,1.70310521 C11.1917808,2.36152519 8.3540693,3.67836514 6.33569702,5.51396022 C5.3564867,6.1723802 4.89685737,7.38945955 3.91764706,8.36711345 C0.000805801773,14.2130848 0.680257857,21.6951299 5.55632554,26.2442134 C6.15584206,26.842777 6.83529412,27.4612927 7.55471394,28 C3.47800161,25.5059849 1.63948429,21.7350342 1,17.1460465 C1,15.5099726 1.31974214,13.8938508 1.65946817,12.2577769 C3.93763094,5.09496569 11.1118453,-0.112537752 18.9255439,1.2043022 C20.2244964,1.52353613 21.5234488,1.86272217 22.8423852,2.1819561 C24.4810637,2.84037608 26.0997583,3.81802998 27.3987107,5.11491781 C28.6976632,6.41180564 29.6768735,8.04787952 30.6560838,9.66400128 C31.315552,10.9608891 31.6352941,12.596963 31.9550363,13.8938508 C32.0149879,14.6320793 32.0149879,15.3902599 31.9550363,16.1284883 L31.9550363,16.1284883 Z" id="Shape" fill="#000000"></path>
                            <path d="M24,16 C24,19.863388 20.6442049,23 16.5,23 C12.3557951,23 9,19.863388 9,16 C9,12.136612 12.3557951,9 16.5,9 C20.6442049,9 24,12.136612 24,16 L24,16 Z" id="Shape" fill="#FFFFFF"></path>
                            <path d="M23.8220366,15.1097356 C23.7231681,14.5590112 23.5649785,14.1262993 23.4067888,13.5165687 C22.7740302,12.1790953 21.844666,11.1366528 20.6186963,10.2515601 C16.0311964,7.16357004 9.72338419,10.1335478 9.05107818,15.4047665 C8.79402,17.4896515 9.52564713,19.4958616 10.8307117,21.0300223 C10.4352376,20.616979 10.0002161,20.184267 9.70361048,19.6925489 L9.66406307,19.7318863 C9.70361048,19.8498987 9.86180013,19.9285736 9.90134755,20.046586 C9.90134755,20.046586 9.7431579,20.046586 9.78270531,20.0269172 C9.66406307,19.8892361 9.7629316,20.1055921 9.94089496,20.400623 C10.0990846,20.6956539 10.2968217,20.9710161 10.5341061,21.2267096 C10.8702591,21.6004154 11.2261859,21.9347837 11.819397,22.3871644 C12.6894401,22.8395451 13.4606146,23.4296069 14.4690737,23.7049691 C14.7459055,23.783644 15.0622848,23.8623189 15.3786641,23.9213251 C15.7148171,23.9803313 16.0311964,24 16.3871231,24 C16.7232762,24 17.0792029,23.9606625 17.5142244,23.8819876 C17.8899248,23.8426502 18.3644938,23.7443066 18.8390627,23.6066255 C19.7882006,23.3115946 20.6780174,22.8198764 21.4491919,22.1118022 C21.8248923,21.7577652 22.3587824,21.3053845 22.7740302,20.7153227 C23.1101832,20.046586 23.1497306,19.7122176 23.3079203,19.4171867 C23.4661099,19.1221558 23.663847,18.7877875 23.8022629,18.3354067 C23.9209052,17.7846824 23.9802263,17.2339581 24,16.7029024 C23.9802263,16.1521781 23.9406789,15.6211225 23.8220366,15.1097356 L23.8220366,15.1097356 Z M19.5914633,11 C20.2744846,11.3812825 20.3749289,11.4384749 20.0133294,11.1906412 C20.5356398,11.305026 20.8570616,11.5909879 21.1784834,11.8769497 C21.9619491,12.7348354 22.6047927,13.745234 22.9262145,14.9081456 C23.1070142,16.2235702 22.9663922,17.5389948 22.3838152,18.7019064 C21.3391943,20.47487 19.6718187,21.6568458 17.6830213,21.9809359 C17.4620438,21.9809359 17.2209775,21.9809359 17,22 C17.5624882,21.9046794 17.9240877,21.5615251 18.9486197,21.1993068 C20.0535071,20.8180243 21.2990166,19.0450607 21.9016825,18.0155979 C23.6695024,15.2131716 21.5802607,12.6204506 19.5914633,11 L19.5914633,11 Z M15.5700326,23 C12.5993485,22.6689655 10.3127036,20.0413793 10,17 C10.2736156,18.6965517 11.2117264,20 12.4820847,21.1586207 C12.9315961,21.4689655 13.5960912,21.9034483 14.0456026,22.2137931 C14.8078176,22.5241379 15.257329,22.8551724 16,23 L16,23 C15.8631922,23 15.7068404,23 15.5700326,23 L15.5700326,23 Z M23.9251501,17.0110527 C23.7826681,17.6093305 23.6401861,18.1883091 23.4977042,18.786587 C23.1923857,19.5199599 22.7445852,20.272632 22.1339482,20.8709099 C21.5233112,21.4691878 20.7498376,21.9323706 19.9763641,22.3762542 C19.3657271,22.6850428 18.5922535,22.8394371 17.9612619,22.9938314 C17.5948797,23.0324299 17.1674338,22.8780357 16.8010516,22.8587364 C21.3197655,22.7429406 24.4136597,18.6707913 23.741959,14.6372405 C23.4162859,13.459984 22.7649398,12.4371218 21.9711116,11.4142597 C21.6454386,10.9703761 21.014447,10.7001861 20.5462919,10.2563025 C17.7170071,8.53866602 13.9717668,8.88605317 11.8345372,11.1440697 C11.5495733,11.4335589 11.2442548,11.7616468 11,12.0897347 C12.1398558,10.4685946 13.9717668,9.32993675 16.17006,9.00184889 C16.9435336,8.9825496 17.7373617,9.11764461 18.5108352,9.25273961 C21.9304025,10.2563025 24.4747234,13.459984 23.9251501,17.0110527 L23.9251501,17.0110527 Z" id="Shape" fill="#D7DF23"></path>
                        </g>
                    </g>
                </g>
            </g>
        </g>
    </g>
</svg>