<svg width="71" height="70" viewBox="0 0 71 70" xmlns="http://www.w3.org/2000/svg"><title>Group 26</title><g transform="translate(.636)" fill="none" fill-rule="evenodd"><path d="M49.71 25.383h-7.38c0-.198-.25-.36-.55-.36h-.077c-.106-.68-.642-1.222-1.33-1.343.07-.278-.124-.575-.445-.655-3.347-.847-6.858-.847-10.206 0-.32.08-.514.377-.444.655-.688.12-1.225.663-1.33 1.344h-.078c-.302 0-.548.16-.548.36H19.94c-1.007 0-1.83.806-1.83 1.792v8.098c0 .334.234.61.55.692V46.54c0 .985.824 1.79 1.83 1.79H49.162c1.006 0 1.83-.805 1.83-1.79V35.965c.315-.08.55-.358.55-.692v-8.098c0-.986-.825-1.793-1.832-1.793m-20.227-1.006l.004.012c.086.282.397.445.692.37 3.047-.77 6.244-.77 9.29 0 .297.075.61-.088.694-.37 0-.005.003-.01.004-.013.38.035.69.298.79.647h-.03c-.304 0-.55.16-.55.36H29.273c0-.2-.246-.36-.548-.36h-.03c.098-.35.408-.612.788-.647" fill="#323232"/><path fill="#FFF" d="M17.053 25.414H52.11V51.21H17.053"/><path d="M50.242 35.913V46.54c0 .567-.485 1.04-1.08 1.04H20.49c-.596 0-1.08-.473-1.08-1.04V35.65l30.832.263zM50.79 35.24H18.86v-8.064c0-.568.484-1.043 1.08-1.043h29.77c.596 0 1.08.475 1.08 1.043v8.065z" stroke="#323232" stroke-width="1.5"/><path d="M36.58 37.694c0 .296-.247.538-.55.538h-2.41c-.3 0-.55-.242-.55-.538V36.08c0-.295.25-.537.55-.537h2.41c.303 0 .55.242.55.538v1.614z" fill="#555353"/><path d="M37.54 36.08c0 .297-.246.54-.55.54h-4.33c-.303 0-.55-.243-.55-.54V34.47c0-.297.247-.538.55-.538h4.33c.304 0 .55.24.55.538v1.613z" fill="#323232"/><ellipse stroke="#323232" stroke-width="1.5" cx="35" cy="35" rx="34.25" ry="34.25"/></g></svg>