<?xml version="1.0" encoding="UTF-8" standalone="no"?>
<svg width="71px" height="71px" viewBox="0 0 71 71" version="1.1" xmlns="http://www.w3.org/2000/svg" xmlns:xlink="http://www.w3.org/1999/xlink">
    <!-- Generator: Sketch 43.1 (39012) - http://www.bohemiancoding.com/sketch -->
    <title>Group 7</title>
    <desc>Created with Sketch.</desc>
    <defs>
        <circle id="path-1" cx="34.9978885" cy="35.5725936" r="34.9978885"></circle>
        <linearGradient x1="50%" y1="0%" x2="50%" y2="100%" id="linearGradient-3">
            <stop stop-color="#FFFFFF" offset="0%"></stop>
            <stop stop-color="#F9F9F9" offset="100%"></stop>
        </linearGradient>
        <path d="M24.826322,0.00648000051 L1.81368014,0.00648000051 C0.861840068,0.00648000051 0.0900000072,0.777600062 0.0900000072,1.72944014 L0.0900000072,30.6702024 C0.0900000072,31.6220425 0.861480068,32.3938826 1.81368014,32.3938826 L24.826682,32.3938826 C25.778522,32.3938826 26.5503621,31.6224025 26.5503621,30.6702024 L26.5503621,1.72944014 C26.5500021,0.777600062 25.778522,0.00648000051 24.826322,0.00648000051 L24.826322,0.00648000051 Z" id="path-4"></path>
    </defs>
    <g id="Page-1" stroke="none" stroke-width="1" fill="none" fill-rule="evenodd">
        <g id="Group-35" transform="translate(-42.818182, -29.000000)">
            <g id="Group-20" transform="translate(14.089459, 0.000000)">
                <g id="Group-7" transform="translate(29.000000, 29.000000)">
                    <mask id="mask-2" fill="white">
                        <use xlink:href="#path-1"></use>
                    </mask>
                    <use id="Mask" fill="#D4DB28" xlink:href="#path-1"></use>
                    <g id="noun_534709" mask="url(#mask-2)" fill-rule="nonzero">
                        <g transform="translate(21.677887, 19.372592)" id="Shape">
                            <g fill="none">
                                <use fill="url(#linearGradient-3)" fill-rule="evenodd" xlink:href="#path-4"></use>
                                <path stroke="#FFFFFF" stroke-width="0.8" d="M24.826322,0.406480001 C25.5576424,0.406480001 26.1500857,0.998581369 26.1503621,1.72959142 L26.1503621,30.6702024 C26.1503621,31.4013514 25.5577454,31.9938826 24.826682,31.9938826 L1.81368014,31.9938826 C1.08253122,31.9938826 0.490000007,31.4012659 0.490000007,30.6702024 L0.490000007,1.72944014 C0.490000007,0.998702974 1.08256491,0.406480001 1.81368014,0.406480001 L24.826322,0.406480001 Z"></path>
                            </g>
                            <path d="M18.6519615,23.5944019 C18.1760414,23.5944019 17.7901214,23.2084818 17.7901214,22.7325618 C17.7901214,20.2680016 15.7845613,18.2628015 13.3200011,18.2628015 C10.8554409,18.2628015 8.8498807,20.2680016 8.8498807,22.7329218 C8.8498807,23.2088418 8.46432067,23.5947619 7.98876063,23.5947619 C7.5128406,23.5947619 7.12692057,23.2088418 7.12692057,22.7329218 C7.12692057,19.3179615 9.90504079,16.5391213 13.3200011,16.5391213 C16.7346013,16.5391213 19.5138016,19.3176015 19.5138016,22.7329218 C19.5138016,23.2088418 19.1278815,23.5944019 18.6519615,23.5944019 Z" fill="#D4DB28"></path>
                            <path d="M12.959281,23.5944019 C12.739321,23.5944019 12.519361,23.5101619 12.349801,23.3420419 C12.013561,23.0054418 12.013561,22.4600418 12.349801,22.1234418 L14.1354011,20.3378416 C14.4716412,20.0016016 15.0177612,20.0016016 15.3532812,20.3378416 C15.6906012,20.6744416 15.6906012,21.2198417 15.3532812,21.5564417 L13.5684011,23.3420419 C13.4010011,23.5098019 13.180321,23.5944019 12.959281,23.5944019 Z" fill="#D4DB28"></path>
                            <path d="M14.9713212,13.9543211 L4.20048033,13.9543211 C3.7249203,13.9543211 3.33936027,13.5684011 3.33936027,13.092481 C3.33936027,12.616561 3.7252803,12.230641 4.20048033,12.230641 L14.9713212,12.230641 C15.4472412,12.230641 15.8331613,12.616561 15.8331613,13.092481 C15.8331613,13.5687611 15.4472412,13.9543211 14.9713212,13.9543211 Z" fill="#D4DB28"></path>
                            <path d="M20.7378016,28.8316823 L5.90184047,28.8316823 C5.42628043,28.8316823 5.0407204,28.4457623 5.0407204,27.9698422 C5.0407204,27.4939222 5.42664043,27.1080022 5.90184047,27.1080022 L20.7378016,27.1080022 C21.2137217,27.1080022 21.5996417,27.4939222 21.5996417,27.9698422 C21.5992817,28.4457623 21.2137217,28.8316823 20.7378016,28.8316823 Z" fill="#D4DB28"></path>
                            <path d="M17.9874014,9.64620077 L4.20048033,9.64620077 C3.7249203,9.64620077 3.33936027,9.26028074 3.33936027,8.7843607 C3.33936027,8.30844066 3.7252803,7.92252063 4.20048033,7.92252063 L17.9874014,7.92252063 C18.4633215,7.92252063 18.8492415,8.30844066 18.8492415,8.7843607 C18.8492415,9.26028074 18.4633215,9.64620077 17.9874014,9.64620077 Z" fill="#D4DB28"></path>
                            <path d="M15.7791613,5.33772042 L4.20048033,5.33772042 C3.7249203,5.33772042 3.33936027,4.95180039 3.33936027,4.47588036 C3.33936027,3.99996032 3.7252803,3.61404029 4.20048033,3.61404029 L15.7791613,3.61404029 C16.2550813,3.61404029 16.6410013,3.99996032 16.6410013,4.47588036 C16.6410013,4.95180039 16.2550813,5.33772042 15.7791613,5.33772042 Z" fill="#D4DB28"></path>
                        </g>
                    </g>
                </g>
            </g>
        </g>
    </g>
</svg>