<svg width="73" height="73" viewBox="0 0 73 73" xmlns="http://www.w3.org/2000/svg" xmlns:xlink="http://www.w3.org/1999/xlink"><title>Group 40</title><defs><circle id="a" cx="34.998" cy="35.573" r="34.998"/></defs><g transform="translate(1.682 1)" fill="none" fill-rule="evenodd"><mask id="b" fill="#fff"><use xlink:href="#a"/></mask><use stroke="#323232" stroke-width="1.5" xlink:href="#a"/><g mask="url(#b)" fill-rule="nonzero"><path d="M46.504 19.38H23.492c-.952 0-1.724.77-1.724 1.722v28.94c0 .953.77 1.724 1.724 1.724h23.013c.95 0 1.723-.77 1.723-1.723v-28.94c0-.953-.772-1.724-1.724-1.724z" stroke="#323232" stroke-width="1.5"/><path d="M40.33 42.967c-.476 0-.862-.386-.862-.862 0-2.464-2.006-4.47-4.47-4.47-2.465 0-4.47 2.006-4.47 4.47 0 .476-.386.862-.86.862-.477 0-.863-.386-.863-.86 0-3.416 2.778-6.195 6.193-6.195 3.414 0 6.194 2.778 6.194 6.194 0 .475-.386.86-.862.86z" fill="#323232"/><path d="M34.637 42.967c-.22 0-.44-.084-.61-.252-.336-.337-.336-.882 0-1.22l1.786-1.785c.337-.336.883-.336 1.218 0 .338.337.338.882 0 1.22l-1.784 1.785c-.167.167-.388.252-.61.252zM36.65 33.327H25.877c-.475 0-.86-.386-.86-.862s.385-.862.86-.862h10.77c.477 0 .863.386.863.862s-.385.862-.86.862zM42.416 48.204H27.58c-.476 0-.86-.386-.86-.862 0-.475.385-.86.86-.86h14.836c.476 0 .862.385.862.86 0 .476-.386.862-.862.862zM39.665 29.02H25.878c-.475 0-.86-.387-.86-.863s.385-.862.86-.862h13.787c.476 0 .862.386.862.862s-.386.862-.862.862zM37.457 24.71h-11.58c-.474 0-.86-.386-.86-.862 0-.475.386-.86.86-.86h11.58c.476 0 .862.385.862.86 0 .476-.387.862-.863.862z" fill="#323232"/></g></g></svg>