<svg width="69" height="68" viewBox="0 0 69 68" xmlns="http://www.w3.org/2000/svg" xmlns:xlink="http://www.w3.org/1999/xlink"><title>Group</title><defs><path d="M34 68c18.778 0 34-15.222 34-34S52.778 0 34 0 0 15.222 0 34s15.222 34 34 34z" id="a"/><path id="b" d="M33.928 44.113l13.185 7.863-3.488-14.83 11.638-9.973L39.92 25.87 33.93 11.89l-5.993 13.98-15.343 1.303 11.64 9.973-3.49 14.83z"/><filter x="-4.3%" y="-4.7%" width="108.7%" height="108.6%" filterUnits="objectBoundingBox" id="c"><feMorphology radius=".75" operator="dilate" in="SourceAlpha" result="shadowSpreadOuter1"/><feOffset in="shadowSpreadOuter1" result="shadowOffsetOuter1"/><feMorphology radius="1" in="SourceAlpha" result="shadowInner"/><feOffset in="shadowInner" result="shadowInner"/><feComposite in="shadowOffsetOuter1" in2="shadowInner" operator="out" result="shadowOffsetOuter1"/><feColorMatrix values="0 0 0 0 1 0 0 0 0 1 0 0 0 0 1 0 0 0 1 0" in="shadowOffsetOuter1"/></filter></defs><g fill="none" fill-rule="evenodd"><path stroke="#323232" stroke-width="1.5" d="M34.273 67.25C15.91 67.25 1.023 52.363 1.023 34S15.91.75 34.273.75c18.363 0 33.25 14.887 33.25 33.25s-14.887 33.25-33.25 33.25z"/><g transform="translate(.273)"><use fill="#000" filter="url(#c)" xlink:href="#b"/><use stroke="#323232" stroke-width="1.5" xlink:href="#b"/></g></g></svg>