<svg width="71" height="70" viewBox="0 0 71 70" xmlns="http://www.w3.org/2000/svg" xmlns:xlink="http://www.w3.org/1999/xlink"><title>Group 25</title><defs><path id="a" d="M0 0h70v70H0z"/></defs><g fill="none" fill-rule="evenodd"><g transform="translate(24.364 14.65)"><path d="M2.997 38.253c0 1.08.874 1.954 1.953 1.954 1.08 0 1.953-.875 1.953-1.954M15.097 38.253c0 1.08.874 1.954 1.953 1.954 1.08 0 1.953-.875 1.953-1.954" fill="#323232"/><rect stroke="#323232" stroke-width="1.1" x=".55" y="10.45" width="20.9" height="27.5" rx="2.2"/><path d="M17.05 37.95H4.95v-3.852c0-.91.744-1.648 1.66-1.648h8.78c.916 0 1.66.74 1.66 1.648v3.852zM8.25 1.148h5.5v9.302h-5.5z" stroke="#323232" stroke-width="1.1"/><path d="M4.4 1.1h13.2M5.5 28.05h11" stroke="#323232" stroke-width="1.1" stroke-linecap="round"/><path stroke="#323232" stroke-width=".55" stroke-linecap="round" stroke-linejoin="round" d="M3.983 18.654l4.213-3.536 2.12 2.528-4.212 3.536zM12.34 13.744l4.335.764-.382 2.166-4.334-.764zM12.34 19.244l4.335.764-.382 2.166-4.334-.764z"/></g><g transform="translate(.364)"><mask id="b" fill="#fff"><use xlink:href="#a"/></mask><ellipse stroke="#323232" stroke-width="1.5" mask="url(#b)" cx="35" cy="35" rx="34.25" ry="34.25"/></g></g></svg>