<svg width="70" height="71" viewBox="0 0 70 71" xmlns="http://www.w3.org/2000/svg" xmlns:xlink="http://www.w3.org/1999/xlink"><title>Group</title><defs><path d="M34 68c18.778 0 34-15.222 34-34S52.778 0 34 0 0 15.222 0 34s15.222 34 34 34z" id="a"/><path d="M37.6 12.126C35.125 5.108 28.45.26 20.814.26 12.786.26 5.815 5.62 3.675 13.235c-.15.532.16 1.084.693 1.233.53.15 1.083-.16 1.233-.692C7.5 7.018 13.69 2.26 20.814 2.26c6.8 0 12.74 4.33 14.922 10.59l-1.57-.87c-.484-.267-1.092-.093-1.36.39s-.093 1.092.39 1.36l3.567 1.977c.483.268 1.092.094 1.36-.39.013-.023.025-.047.036-.072l1.96-3.538c.27-.483.095-1.09-.388-1.36-.484-.267-1.092-.092-1.36.39l-.77 1.39z" id="c"/><path d="M5.32 21.168C6.775 28.483 13.23 33.86 20.812 33.86c7.734 0 14.296-5.595 15.577-13.134.092-.545.608-.91 1.153-.82.544.094.91.61.818 1.155-1.442 8.498-8.834 14.8-17.547 14.8-8.673 0-16.038-6.245-17.528-14.685l-1.152 1.193c-.383.398-1.016.41-1.414.025C.32 22.01.31 21.376.694 20.98l2.833-2.935c.384-.398 1.017-.41 1.414-.025l.056.058 2.91 2.81c.397.384.408 1.017.025 1.414-.384.398-1.017.41-1.414.025l-1.2-1.16z" id="d"/></defs><g transform="translate(.85 1.575)" fill="none" fill-rule="evenodd"><mask id="b" fill="#fff"><use xlink:href="#a"/></mask><use stroke="#323232" stroke-width="1.5" xlink:href="#a"/><g mask="url(#b)" fill-rule="nonzero"><g transform="translate(13.5 16)"><use fill="#FFF" fill-rule="evenodd" xlink:href="#c"/><path stroke="#323232" stroke-width="1.5" d="M37.708 10.386C34.734 3.834 28.158-.49 20.813-.49c-8.325 0-15.62 5.546-17.86 13.522-.26.93.28 1.897 1.212 2.158.93.262 1.896-.28 2.158-1.21C8.14 7.51 14.06 3.01 20.813 3.01c5.716 0 10.857 3.227 13.396 8.177-.78-.248-1.65.078-2.06.82-.47.845-.164 1.91.68 2.38l3.57 1.976c.844.47 1.91.163 2.378-.682.033-.06.033-.06.063-.124l1.935-3.485c.47-.844.163-1.91-.682-2.378-.845-.47-1.91-.163-2.38.682l-.005.012z"/></g><g transform="translate(13.5 16)"><use fill="#FFF" fill-rule="evenodd" xlink:href="#d"/><path stroke="#323232" stroke-width="1.5" d="M6.69 23.278c.612.19 1.307.038 1.782-.455.672-.695.652-1.803-.043-2.474l-2.91-2.81c-.007-.01-.007-.01-.057-.06-.695-.67-1.803-.652-2.474.044L.154 20.458c-.67.695-.652 1.803.043 2.475.696.67 1.803.652 2.475-.044l.177-.184C4.936 30.81 12.29 36.61 20.813 36.61c9.05 0 16.78-6.538 18.288-15.424.163-.953-.48-1.856-1.43-2.018-.954-.162-1.858.48-2.02 1.432-1.223 7.205-7.495 12.51-14.837 12.51-6.387 0-11.98-4.02-14.122-9.832z"/></g></g></g></svg>