<svg width="180" height="177" viewBox="0 0 180 177" xmlns="http://www.w3.org/2000/svg" xmlns:xlink="http://www.w3.org/1999/xlink"><title>Page 1</title><defs><path id="a" d="M77.972.366H0V177h180V.366H77.972 180v129.138H77.972z"/><path id="c" d="M101.22.366H.038v126.94H101.22V.367z"/><path id="e" d="M.87.366H85.99V166.82H.87z"/><path id="g" d="M0 68.73V.397h86.16V68.73H0z"/></defs><g fill="none" fill-rule="evenodd"><path d="M172.992 167.856c0 4.848-34.423 8.778-76.886 8.778-42.462 0-76.885-3.93-76.885-8.778 0-4.85 34.424-8.778 76.886-8.778 42.463 0 76.886 3.93 76.886 8.778" fill="#EDEEEF"/><g transform="translate(0 -.366)"><mask id="b" fill="#fff"><use xlink:href="#a"/></mask><path d="M98.46 120.14s-28.487-17.174-18.28-51.814c9.886-33.544 48.45-59.83 92.812-67.96 0 0 16.476 50.602-1.097 99.27-16.222 44.92-62.608 25.844-62.608 25.844l-10.826-5.34z" fill="#B6E880" mask="url(#b)"/></g><g transform="translate(78 -.366)"><mask id="d" fill="#fff"><use xlink:href="#c"/></mask><path d="M21.56 117.942S-8.028 102.965 2.18 68.325C12.068 34.78 50.63 8.495 94.994.365c0 0 15.377 48.405-2.197 97.073-16.22 44.92-61.508 25.845-61.508 25.845l-9.73-5.34z" fill="#96D15F" mask="url(#d)"/></g><g transform="translate(87 -.366)"><mask id="f" fill="#fff"><use xlink:href="#e"/></mask><path d="M85.992.365S35.445 63.068 12.558 117.942C7.928 129.046 1.96 153.17.868 164.622c0 0 4.708 4.943 8.395 0 0 0 5.884-76.44 76.73-164.257" fill="#8ABF51" mask="url(#f)"/></g><path d="M96.264 164.257s1.728-22.364 14.515-56.787v-.01s-13.206 23.03-16.138 58.332c.55-.346 1.097-.83 1.622-1.535" fill="#B6E880"/><path d="M108.738 105.69s29.93 7.768 51.35-5.688c0 0-23.89 10.435-50.25 1.374l-1.1 4.313zM112.582 93.198s-19.22-10.434-16.75-40.364c0 0-3.295 23.34 17.85 35.97l-1.1 4.394zM122.193 76.342s23.614 9.107 42.287-1.977c0 0-21.433 6.922-39.97-2.346l-2.317 4.322zM131.3 58.045s-14.48-14.68-4.596-33.352c0 0-5.716 19.27 7.303 30.23l-2.706 3.122zM146.555 36.66s16.278 3.206 26.437-8.6c0 0-9.38 8.886-24.46 5.54l-1.977 3.06zM157.574 19.08s-2.428-5.765 0-10.95c0 0-1.19 5.343 1.21 9.387 0 0-.336 1.556-1.21 1.564" fill="#8ABF51"/><g transform="translate(0 80.634)"><mask id="h" fill="#fff"><use xlink:href="#g"/></mask><path d="M63.344 68.21c-7.27 1.453-25.464 1.754-36.914-25.633C14.98 15.19 0 4.457 0 4.457s52.39-15.185 76.25 13.166c24.607 29.233-3.16 48.637-12.906 50.586" fill="#8ABF51" mask="url(#h)"/></g><path d="M64.442 146.646c-7.27 1.454-25.464 1.755-36.914-25.63C16.078 93.627 0 85.09 0 85.09s52.39-15.185 76.25 13.165c24.606 29.234-2.064 46.44-11.808 48.39" fill="#96D15F"/><path d="M87.87 164.257S81.553 111.23 0 85.092c0 0 72.393 9.167 93.087 74.732 0 0 1.663 8.787-5.218 4.433" fill="#8ABF51"/><path d="M71.53 130.236s-14.474 9.63-27.235 4.365c0 0 11.172 7.873 29.213-1.873 0 0 1-3.975-1.98-2.49M68.7 119.356s6.72-10.018 2.877-21.367c0 0 .608 10.523-4.73 19.54 0 0-.84 3.055 1.853 1.826M56.123 114.703s-12.737 9.097-25.735 2.323c0 0 12.903 3.274 23.66-4.038 0 0 2.365-1.158 2.075 1.715M47.336 102.626s3.92-12.875-2.303-18.367c0 0 4.388 6.498.183 17.48 0 0 .03 2.778 2.12.886M32.4 96.433s-9.56 3.504-15.65.55c0 0 4.668 4.484 17.024 1.006L32.4 96.432zM15.194 84.26s8.33 4.118 9.152 7.962l1.74.976s-.824-6.1-10.892-8.94" fill="#8ABF51"/><path d="M59.026 110.736c26.355 24.31 30.216 44.367 30.398 43.453.182-.906.55-2.84.558-2.883-7.383-17.82-18.753-30.94-30.956-40.57" fill="#A2D363"/></g></svg>