<svg width="193" height="32" viewBox="0 0 193 32" xmlns="http://www.w3.org/2000/svg"><title>Ola Logo</title><g fill="none" fill-rule="evenodd"><path d="M111.5 7.598c-1.22 0-2.207.305-2.96.915-.75.61-1.127 1.397-1.127 2.36 0 .96.352 1.705 1.055 2.232.703.528 2.143 1.153 4.32 1.875 2.18.723 3.71 1.473 4.593 2.25.885.775 1.327 1.92 1.327 3.434 0 1.514-.552 2.66-1.655 3.435-1.104.775-2.437 1.164-4 1.164-3.163 0-5.8-.948-7.91-2.842l.66-1.026c2.002 1.758 4.34 2.637 7.016 2.637 2.998 0 4.497-1.147 4.497-3.442 0-1.122-.363-1.98-1.09-2.57-.728-.59-1.934-1.165-3.62-1.72-1.684-.558-2.814-.956-3.39-1.195-.576-.24-1.145-.56-1.707-.96-.56-.4-.947-.86-1.157-1.384-.21-.52-.314-1.173-.314-1.954 0-1.3.5-2.36 1.502-3.18 1-.82 2.32-1.23 3.962-1.23 2.354.01 4.512.513 6.475 1.51l-.44 1.07c-1.836-.92-3.847-1.378-6.035-1.378zM138.102 25h-1.348v-8.76h-11.94V25h-1.346V6.704h1.347v8.276h11.94V6.704h1.347V25zm17.226-6.577l-3.838-8.628c-.38-.9-.654-1.592-.82-2.08-.078.224-.337.918-.776 2.08l-3.868 8.628h9.302zm-9.814 1.274L143.14 25h-1.464l8.16-18.296h1.713L159.707 25h-1.48l-2.358-5.303h-10.356zm19.1-2.68h5.275c1.56 0 2.848-.415 3.86-1.246 1.01-.83 1.515-1.913 1.515-3.25 0-3.038-1.92-4.556-5.757-4.556h-4.893v9.053zM177.067 25h-1.464l-5.8-6.724h-5.187V25h-1.347V6.704h6.24c4.756 0 7.134 1.94 7.134 5.816 0 1.503-.5 2.77-1.502 3.8-1 1.03-2.287 1.654-3.86 1.868l5.786 6.666V25zm15.777 0h-11.88V6.704h11.572v1.26H182.31v7.075h9.024v1.26h-9.023v7.44h10.533V25zM82.02 14.885L76.074 24.98 71 25 82.02 6 93 25h-5.155L82.02 14.885zM66.343 20.58H72L69.374 25H62l.02-5.384V6h4.344l-.02 14.58zM50.52 6c5.25.02 9.5 4.268 9.48 9.52-.02 5.232-4.268 9.48-9.52 9.48-5.232-.02-9.48-4.268-9.48-9.52.02-5.232 4.268-9.48 9.52-9.48zm.47 15c2.777 0 5.01-2.233 5.01-4.99.02-2.757-2.233-5.01-4.99-5.01-2.758-.02-5.01 2.233-5.01 4.99-.02 2.758 2.233 5.01 4.99 5.01zM32.736 14.146c-.06-.794-.263-1.846-.567-2.86-.61-2.024-1.664-3.95-3.184-5.618-.77-.834-1.642-1.61-2.94-2.522-1.46-.735-2.31-1.21-2.92-1.57-.627-.356-1.377-.793-2.37-1.11-1.197-.28-2.393-.438-3.59-.457-1.175-.04-2.35.058-3.486.277-1.196.198-2.19.516-3.507.834-2.98 1.29-5.29 3.237-7.278 5.818-6.934 9.71-.67 23.312 10.907 24.92 1.905.258 3.81.16 5.615-.258l1.277-.337c.04-.02.102-.04.142-.04l1.46-.556c.08-.04.142-.06.223-.1l.607-.277c1.156-.576 2.27-1.29 3.264-2.125-.91.834-1.905 1.57-2.96 2.204l.062.04c.203-.06.385-.12.588-.16 0 0 0 .318-.04.258-.325.238.182.02.83-.318.65-.337 1.278-.754 1.845-1.23.832-.696 1.56-1.45 2.595-2.68 1.055-1.848 2.372-3.456 2.98-5.62.203-.577.386-1.252.507-1.947.122-.695.203-1.41.203-2.144-.02-.736-.1-1.49-.264-2.424zM17.6 30c3.49-.552 6.42-2.503 8.812-5.164.658-.966 1.176-1.853 1.814-2.82.797-1.97.737-3.725.997-4.966.32-2.248-.44-4.06-1.077-5.993-.977-2.247-2.272-3.922-4.545-5.223-5.74-3.588-13.553-2.583-17.28 2.78-.02 0-.12.137-.32.413.26-1.104.917-1.754 1.575-2.385 1.953-1.616 4.226-2.898 6.817-3.53 2.93-.314 5.84 0 8.452 1.283C26.75 6.642 29.342 10.17 30 14.35v3.863C29.183 24.54 23.8 29.35 17.6 30zm14.355-13.872C31.815 6.75 22.683.426 13.79 1.703c-2.598.66-5.436 1.975-7.454 3.81-.98.66-1.44 1.876-2.418 2.854C0 14.213.68 21.695 5.556 26.244c.6.6 1.28 1.217 2 1.756C3.477 25.506 1.638 21.735 1 17.146c0-1.636.32-3.252.66-4.888C3.937 5.095 11.11-.112 18.925 1.204c1.298.32 2.597.66 3.916.978 1.64.658 3.258 1.636 4.557 2.933 1.298 1.297 2.277 2.933 3.256 4.55.66 1.296.98 2.932 1.3 4.23.06.737.06 1.495 0 2.233z" fill="#000"/><path d="M24 16c0 3.863-3.356 7-7.5 7S9 19.863 9 16s3.356-7 7.5-7 7.5 3.137 7.5 7z" fill="#FFF"/><path d="M23.822 15.11c-.1-.55-.257-.984-.415-1.593-.633-1.338-1.562-2.38-2.788-3.265-4.59-3.088-10.897-.118-11.57 5.153-.256 2.085.476 4.09 1.78 5.625-.395-.413-.83-.846-1.126-1.337l-.04.04c.04.117.198.196.237.314 0 0-.157 0-.117-.02-.12-.138-.02.08.158.374.16.296.357.57.594.827.336.373.692.708 1.285 1.16.87.453 1.64 1.043 2.65 1.318.276.08.592.157.91.216.335.06.65.08 1.007.08.336 0 .692-.04 1.127-.118.376-.04.85-.138 1.325-.275.948-.295 1.838-.787 2.61-1.495.375-.354.91-.807 1.324-1.397.336-.668.376-1.003.534-1.298.158-.295.356-.63.494-1.082.12-.55.178-1.1.198-1.632-.02-.55-.06-1.082-.178-1.593zM19.592 11c.682.38.783.438.42.19.524.115.845.4 1.166.687.784.858 1.427 1.868 1.748 3.03.18 1.317.04 2.632-.542 3.795-1.045 1.773-2.712 2.955-4.7 3.28-.222 0-.463 0-.684.018.562-.095.924-.438 1.95-.8 1.104-.382 2.35-2.155 2.952-3.184 1.768-2.803-.322-5.396-2.31-7.016zM15.57 23c-2.97-.33-5.257-2.96-5.57-6 .274 1.697 1.212 3 2.482 4.16.45.31 1.114.743 1.564 1.054.762.31 1.21.64 1.954.786h-.43zm8.355-5.99c-.142.6-.285 1.178-.427 1.777-.306.733-.753 1.486-1.364 2.084-.61.6-1.384 1.062-2.158 1.506-.61.31-1.384.463-2.015.618-.365.038-.793-.116-1.16-.135 4.52-.117 7.614-4.19 6.942-8.223-.326-1.177-.977-2.2-1.77-3.223-.327-.444-.958-.714-1.426-1.158-2.83-1.717-6.574-1.37-8.71.888-.286.29-.592.618-.836.946 1.14-1.62 2.972-2.76 5.17-3.088.774-.02 1.567.116 2.34.25 3.42 1.004 5.965 4.208 5.415 7.76z" fill="#D7DF23"/></g></svg>