<svg width="50" height="41" viewBox="0 0 50 41" xmlns="http://www.w3.org/2000/svg"><title>hotspot</title><g fill-rule="nonzero" fill="none"><path d="M39.358 22.31H7.398c-1.148 0-2.07.545-2.36 1.43C3.867 27.335.866 36.52.624 37.21.19 38.448.84 41 4.253 41h21.65L39.36 22.31z" fill="#7CB318"/><path d="M25.063 30.53L1.5 40.135S2.37 41 4.057 41H46.48c3.172 0 3.736-2.572 3.435-3.646-10.166-2.86-24.852-6.823-24.852-6.823z" fill="#4A90E2"/><path d="M44.468 22.613l-18.16 7.407s18.873 6.56 23.682 8.19c.018-.3-.01-.633-.11-1-1.66-4.997-4.317-13.2-4.466-13.633-.215-.628-.946-.964-.946-.964z" fill="#7C7C7C"/><path d="M1.49 40.11l42.98-17.494c-.356-.217-1.228-.307-1.228-.307h-3.884L.563 37.38s-.424 1.483.926 2.727z" fill="#FFCF47"/><path d="M23.04 31.338s25.718 8.83 25.868 8.875c.612-.362 1.13-1.483 1.08-2.25l-23.445-8.04-3.503 1.415z" fill="#F5F7FA"/><path d="M24.398 0c-5.49 0-9.94 4.454-9.94 9.95 0 2.612 2.612 6.885 4.97 10.877l4.97 8.416s2.832-4.873 5.722-9.95c2.02-3.546 4.217-7.066 4.217-9.344 0-5.496-4.45-9.95-9.94-9.95zm0 13.265c-1.498 0-2.71-1.215-2.71-2.714 0-1.497 1.212-2.712 2.71-2.712 1.497 0 2.71 1.215 2.71 2.713 0 1.5-1.213 2.715-2.71 2.715z" fill="#FE564C"/></g></svg>