<svg width="31" height="25" viewBox="0 0 31 25" xmlns="http://www.w3.org/2000/svg"><title>ic_ratecard</title><g fill="none" fill-rule="evenodd"><rect stroke="#4A4A4A" stroke-width="1.2" x=".6" y=".6" width="29.8" height="23.8" rx="1.86"/><path d="M12.758 13.816l4.803 6.602h-1.674L10.86 13.48v-.67h1.625c1.157 0 2.077-.222 2.76-.668.683-.447 1.068-1.078 1.155-1.894h-5.55v-1.1h5.56c-.08-.808-.405-1.444-.973-1.908-.57-.464-1.314-.696-2.235-.696H10.86V5.32h9.92v1.13h-4.612v.125c.444.203.81.536 1.1 1 .29.463.454.988.495 1.574h3.017v1.098h-3.037c-.115 1.074-.587 1.937-1.418 2.59-.83.652-1.89.978-3.174.978h-.392z" fill="#4A4A4A"/></g></svg>