<svg width="180" height="153" viewBox="0 0 180 153" xmlns="http://www.w3.org/2000/svg" xmlns:xlink="http://www.w3.org/1999/xlink"><title>Page 1</title><defs><path id="a" d="M174 .76v20.24H.764V.762H174z"/><path id="c" d="M0 140.397V.192h140.204v140.205z"/><path id="e" d="M0 120.397V.724h119.672v119.673z"/></defs><g fill="none" fill-rule="evenodd"><g transform="translate(6 131.808)"><mask id="b" fill="#fff"><use xlink:href="#a"/></mask><path d="M174 10.88C174 16.47 135.22 21 87.382 21 39.544 21 .764 16.47.764 10.88.764 5.292 39.544.76 87.382.76 135.22.76 174 5.295 174 10.88" fill="#EDEEEF" mask="url(#b)"/></g><path d="M164.01 82.022H35.758c-1.983 0-3.592-1.608-3.592-3.592V67.158c0-1.984 1.61-3.593 3.592-3.593h129.807c1.126 0 2.04.915 2.04 2.04V78.43c0 1.984-1.61 3.592-3.593 3.592" fill="#FED970"/><path d="M151.05 82.022h-3.636c-.375 0-.677-.303-.677-.678v-17.1c0-.374.302-.678.677-.678h3.637c.375 0 .68.303.68.677v17.102c0 .374-.305.677-.68.677" fill="#FFE8A1"/><path d="M164.01 78.11H35.758c-1.983 0-3.592-1.61-3.592-3.594v5.467c0 1.126.913 2.04 2.04 2.04h131.36c1.125 0 2.038-.914 2.038-2.04v-5.467c0 1.985-1.61 3.593-3.592 3.593" fill="#F9C758"/><path d="M157.375 100.48H29.123c-1.985 0-3.594-1.61-3.594-3.593V85.615c0-1.984 1.608-3.592 3.592-3.592H158.93c1.126 0 2.04.913 2.04 2.04v12.824c0 1.984-1.61 3.592-3.593 3.592" fill="#FED970"/><path d="M148.32 100.48h-3.636c-.374 0-.677-.305-.677-.68V82.7c0-.373.303-.677.677-.677h3.637c.376 0 .68.304.68.678v17.1c0 .375-.304.68-.68.68" fill="#FFE8A1"/><path d="M157.375 96.566H29.123c-1.985 0-3.594-1.61-3.594-3.593v5.466c0 1.126.912 2.038 2.038 2.038h131.36c1.126 0 2.04-.912 2.04-2.038v-5.466c0 1.983-1.61 3.59-3.593 3.59" fill="#F9C758"/><path d="M171.837 118.935H43.583c-1.983 0-3.592-1.608-3.592-3.592V104.07c0-1.983 1.61-3.59 3.593-3.59H173.39c1.126 0 2.04.912 2.04 2.038v12.825c0 1.984-1.61 3.592-3.593 3.592" fill="#FED970"/><path d="M154.27 118.935h-3.636c-.374 0-.677-.304-.677-.678v-17.1c0-.374.303-.678.677-.678h3.637c.376 0 .68.303.68.677v17.1c0 .374-.304.678-.68.678" fill="#FFE8A1"/><path d="M171.837 115.022H43.583c-1.983 0-3.592-1.61-3.592-3.593v5.465c0 1.127.914 2.04 2.04 2.04h131.36c1.126 0 2.04-.913 2.04-2.04v-5.465c0 1.983-1.61 3.59-3.593 3.59" fill="#F9C758"/><path d="M152.81 137.39H65.39c-1.983 0-3.592-1.606-3.592-3.59v-11.273c0-1.984 1.61-3.592 3.592-3.592h88.974c1.126 0 2.04.913 2.04 2.04v12.824c0 1.984-1.61 3.59-3.593 3.59" fill="#FED970"/><path d="M141.954 137.39h-3.637c-.374 0-.677-.302-.677-.677v-17.1c0-.374.303-.678.677-.678h3.637c.375 0 .678.304.678.678v17.1c0 .375-.303.678-.678.678" fill="#FFE8A1"/><path d="M152.81 133.478H65.39c-1.983 0-3.592-1.608-3.592-3.592v5.466c0 1.127.913 2.04 2.04 2.04h90.526c1.126 0 2.04-.913 2.04-2.04v-5.466c0 1.984-1.61 3.592-3.593 3.592" fill="#F9C758"/><g transform="translate(0 -.192)"><mask id="d" fill="#fff"><use xlink:href="#c"/></mask><path d="M119.672 119.864c-27.377 27.377-71.764 27.377-99.14 0-27.377-27.377-27.377-71.763 0-99.14 27.376-27.376 71.763-27.376 99.14 0 27.376 27.377 27.376 71.763 0 99.14" fill="#FFE8A1" mask="url(#d)"/></g><g transform="translate(0 19.808)"><mask id="f" fill="#fff"><use xlink:href="#e"/></mask><path d="M119.672 99.864c-27.377 27.377-71.764 27.377-99.14 0-27.377-27.377-27.377-71.763 0-99.14" fill="#E3A753" mask="url(#f)"/></g><path d="M117 117c-25.901 25.9-67.894 25.9-93.794 0-25.9-25.9-25.9-67.894 0-93.794 25.9-25.9 67.892-25.9 93.793 0 25.9 25.9 25.9 67.893 0 93.793" fill="#FED970"/><path d="M110.162 110.16c-22.124 22.125-57.994 22.125-80.118 0-22.124-22.123-22.124-57.993 0-80.117 22.124-22.124 57.994-22.124 80.118 0 22.124 22.124 22.124 57.994 0 80.118" fill="#E2A752"/><path d="M107.17 107.17c-20.472 20.473-53.664 20.473-74.137 0-20.47-20.472-20.47-53.664 0-74.136 20.473-20.472 53.665-20.472 74.137 0 20.473 20.472 20.473 53.664 0 74.137" fill="#F6C250"/><path d="M76.012 105.28c-.285-.37-.564-.743-.856-1.108-6.864-8.588-13.728-17.175-20.587-25.766-.086-.105-.16-.257-.16-.388-.013-1.632-.013-3.264-.015-4.896 0-.058.01-.114.017-.21h.35c1.975 0 3.95.024 5.924-.013 2.28-.045 4.513-.395 6.648-1.228 2.444-.953 4.47-2.43 5.807-4.74.732-1.264 1.143-2.626 1.205-4.09.003-.076 0-.153 0-.27H52.35c.094-.15.15-.245.21-.336 1.13-1.7 2.265-3.398 3.386-5.104.126-.19.258-.244.474-.244 5.61.006 11.22.005 16.83.005h.383c-.294-.703-.66-1.308-1.097-1.872-1.17-1.515-2.728-2.455-4.52-3.047-1.862-.614-3.79-.885-5.736-.93-3.175-.07-6.352-.063-9.528-.09h-.388c.075-.126.12-.207.17-.285 1.142-1.717 2.287-3.43 3.42-5.152.118-.177.24-.236.45-.235 12.1.005 24.2.005 36.302.005h.325c-.07.115-.115.197-.166.274-1.14 1.716-2.285 3.43-3.417 5.152-.125.19-.258.247-.476.246-3.03-.007-6.06-.004-9.09-.004h-.426c1.51 1.742 2.385 3.726 2.846 5.934h10.733c-.076.123-.122.205-.173.283-1.14 1.717-2.283 3.433-3.417 5.154-.116.175-.238.242-.45.24-2.1-.007-4.203 0-6.303-.008-.212 0-.31.048-.343.275-.52 3.362-2.036 6.208-4.462 8.574-1.96 1.912-4.27 3.27-6.816 4.242-2.418.924-4.924 1.438-7.503 1.605-.07.005-.136.01-.26.022.076.108.13.192.19.268 7.33 9.167 14.66 18.332 21.988 27.5.057.072.096.16.145.24h-9.618z" fill="#E2A752"/><path d="M73.422 102.692c-.285-.37-.564-.745-.856-1.11-6.863-8.588-13.728-17.175-20.587-25.765-.086-.106-.16-.258-.16-.39-.013-1.63-.012-3.263-.015-4.895 0-.057.01-.114.017-.21h.35c1.975 0 3.95.025 5.924-.013 2.28-.044 4.513-.395 6.648-1.227 2.444-.954 4.47-2.43 5.808-4.74.73-1.265 1.142-2.627 1.203-4.09.003-.077 0-.153 0-.27H49.76c.095-.15.15-.245.212-.337 1.13-1.7 2.263-3.398 3.385-5.104.125-.19.257-.244.473-.243 5.61.004 11.22.003 16.832.003h.38c-.293-.703-.66-1.307-1.095-1.872-1.17-1.515-2.73-2.455-4.52-3.046-1.863-.614-3.79-.885-5.736-.93-3.175-.07-6.352-.064-9.528-.09h-.388c.076-.126.12-.208.172-.285 1.14-1.718 2.285-3.432 3.418-5.154.118-.177.242-.235.45-.235 12.1.006 24.202.005 36.302.005h.325c-.07.115-.114.197-.165.275-1.14 1.717-2.286 3.43-3.418 5.152-.124.19-.257.247-.476.247-3.03-.008-6.06-.006-9.09-.006h-.426c1.51 1.742 2.386 3.726 2.846 5.935h10.733c-.075.122-.122.203-.173.28-1.14 1.718-2.283 3.433-3.416 5.154-.116.175-.24.242-.45.24-2.1-.007-4.203 0-6.304-.008-.212 0-.308.048-.343.275-.518 3.362-2.036 6.208-4.462 8.575-1.96 1.91-4.27 3.27-6.816 4.242-2.417.923-4.924 1.437-7.503 1.604-.068.006-.136.01-.26.022.076.108.13.192.19.27 7.33 9.165 14.66 18.33 21.988 27.498.058.072.097.16.145.242h-9.618z" fill="#FED870"/></g></svg>