<svg width="144" height="180" viewBox="0 0 144 180" xmlns="http://www.w3.org/2000/svg" xmlns:xlink="http://www.w3.org/1999/xlink"><title>Page 1</title><defs><path id="a" d="M0 141.665V.065h141.6v141.6z"/></defs><g fill="none" fill-rule="evenodd"><path d="M143.577 171.828c0 4.514-31.32 8.172-69.952 8.172-38.634 0-69.952-3.658-69.952-8.172 0-4.513 31.318-8.172 69.952-8.172 38.633 0 69.952 3.66 69.952 8.172" fill="#EDEEEF"/><path d="M77.064 36.14H64.83v-9.297c0-1.91 1.547-3.456 3.456-3.456h5.322c1.908 0 3.456 1.547 3.456 3.456v9.296zM102.88 48.77l-11.016-5.323L97.86 31.04c.83-1.717 2.896-2.437 4.615-1.606l4.792 2.315c1.717.83 2.437 2.896 1.607 4.615L102.88 48.77z" fill="#7F8182"/><path d="M108.303 32.527l-7.082-3.423c-1.37-.1-2.727.624-3.36 1.937l-1.61 3.334 10.29 4.974c.26.126.535.178.806.177l1.528-3.16c.635-1.314.36-2.825-.57-3.838" fill="#6C6D6D"/><path d="M108.04 37.85l-10.826-5.233c-.914-.443-1.298-1.542-.856-2.457l1.406-2.908c.44-.915 1.542-1.298 2.456-.856l10.827 5.233c.915.44 1.298 1.54.855 2.455l-1.405 2.908c-.44.915-1.54 1.298-2.456.856" fill="#7F8182"/><g transform="translate(0 31)"><mask id="b" fill="#fff"><use xlink:href="#a"/></mask><path d="M70.8.065c39.103 0 70.8 31.698 70.8 70.8 0 39.1-31.697 70.8-70.8 70.8-39.102 0-70.8-31.7-70.8-70.8C0 31.763 31.697.065 70.8.065" fill="#BCA799" mask="url(#b)"/></g><path d="M120.863 151.928c-27.65 27.648-72.478 27.648-100.126 0-27.65-27.65-27.65-72.478 0-100.126l100.126 100.126z" fill="#A58E7E"/><path d="M70.947 35.215c36.81 0 66.65 29.84 66.65 66.65s-29.84 66.65-66.65 66.65-66.65-29.84-66.65-66.65 29.84-66.65 66.65-66.65" fill="#8E7865"/><path d="M66.544 54.53c28.574 0 51.738 23.164 51.738 51.738 0 28.575-23.164 51.738-51.738 51.738-28.574 0-51.737-23.163-51.737-51.738 0-28.574 23.163-51.738 51.737-51.738" fill="#826C5B"/><path d="M70.947 50.127c28.574 0 51.738 23.164 51.738 51.738 0 28.574-23.164 51.738-51.738 51.738-28.574 0-51.738-23.164-51.738-51.738 0-28.574 23.163-51.738 51.737-51.738" fill="#EDEEEF"/><path d="M70.947 54.124c26.366 0 47.74 21.375 47.74 47.74 0 26.367-21.374 47.74-47.74 47.74-26.366 0-47.74-21.373-47.74-47.74 0-26.365 21.374-47.74 47.74-47.74" fill="#FFF"/><path d="M70.947 50.127c-10.37 0-20.017 3.062-28.112 8.313 5.233-1.78 10.837-2.76 16.674-2.76 28.572 0 51.736 23.162 51.736 51.737 0 18.205-9.41 34.203-23.625 43.423 20.39-6.94 35.065-26.238 35.065-48.975 0-28.574-23.164-51.738-51.738-51.738" fill="#EDEEEF"/><path d="M70.947 59.686c23.295 0 42.18 18.884 42.18 42.18 0 23.294-18.885 42.177-42.18 42.177-23.295 0-42.18-18.883-42.18-42.178 0-23.295 18.885-42.18 42.18-42.18z" stroke="#EDEEEF" stroke-width="11.654" stroke-dasharray="1.784,22.302"/><path d="M70.947 50.127c14.287 0 27.222 5.79 36.584 15.153l-36.583 36.585V50.127z" fill="#8CDD4B" opacity=".4"/><path fill="#707272" d="M71.846 92.228l30.185-21.535-21.166 29.78"/><path fill="#484B4C" d="M71.846 92.228l30.185-21.535L76.3 96.3"/><path d="M70.947 89.394c6.888 0 12.47 5.583 12.47 12.47 0 6.888-5.582 12.47-12.47 12.47-6.887 0-12.47-5.582-12.47-12.47 0-6.887 5.583-12.47 12.47-12.47" fill="#5A5D5E"/><path d="M70.947 95.748c3.378 0 6.117 2.74 6.117 6.117 0 3.378-2.74 6.117-6.117 6.117-3.378 0-6.117-2.74-6.117-6.117 0-3.378 2.74-6.117 6.117-6.117" fill="#FFF"/><path d="M70.846 22.117c-4.25 0-7.697-3.446-7.697-7.697 0-4.25 3.445-7.697 7.696-7.697 4.25 0 7.697 3.446 7.697 7.697 0 4.25-3.446 7.697-7.697 7.697M70.8 0c-7.965 0-14.42 6.456-14.42 14.42 0 7.964 6.455 14.42 14.42 14.42 7.964 0 14.42-6.456 14.42-14.42C85.22 6.456 78.764 0 70.8 0" fill="#6D7070"/><path d="M70.84 21.298c-3.797 0-6.877-3.08-6.877-6.877 0-3.798 3.08-6.877 6.878-6.877 3.8 0 6.88 3.08 6.88 6.878 0 3.8-3.08 6.878-6.88 6.878M70.8 1.536c-7.115 0-12.886 5.768-12.886 12.885 0 7.116 5.77 12.885 12.885 12.885s12.885-5.77 12.885-12.884c0-7.116-5.77-12.884-12.886-12.884" fill="#5A5D5E"/><path d="M55.788 134.285H53.12c-.86 0-1.558-.697-1.558-1.558v-9.947c0-.86.698-1.558 1.558-1.558h2.668c.86 0 1.558.698 1.558 1.558v9.947c0 .86-.698 1.558-1.558 1.558M64.035 134.285h-2.67c-.858 0-1.556-.697-1.556-1.558v-9.947c0-.86.697-1.558 1.556-1.558h2.67c.86 0 1.557.698 1.557 1.558v9.947c0 .86-.698 1.558-1.558 1.558M72.28 134.285h-2.667c-.86 0-1.558-.697-1.558-1.558v-9.947c0-.86.698-1.558 1.558-1.558h2.668c.86 0 1.56.698 1.56 1.558v9.947c0 .86-.7 1.558-1.56 1.558M80.528 134.285h-2.67c-.86 0-1.557-.697-1.557-1.558v-9.947c0-.86.7-1.558 1.56-1.558h2.668c.86 0 1.557.698 1.557 1.558v9.947c0 .86-.697 1.558-1.557 1.558M88.774 134.285h-2.668c-.86 0-1.558-.697-1.558-1.558v-9.947c0-.86.698-1.558 1.558-1.558h2.668c.86 0 1.558.698 1.558 1.558v9.947c0 .86-.698 1.558-1.558 1.558" fill="#EDEEEF"/></g></svg>