<svg width="179" height="169" viewBox="0 0 179 169" xmlns="http://www.w3.org/2000/svg" xmlns:xlink="http://www.w3.org/1999/xlink"><title>Page 1</title><defs><path id="a" d="M.76.792h40.042v40.04H.762V.792z"/></defs><g fill="none" fill-rule="evenodd"><path d="M165.16 158.353c0 5.443-35.198 9.855-78.615 9.855-43.417 0-78.614-4.412-78.614-9.855 0-5.442 35.198-9.854 78.615-9.854 43.417 0 78.614 4.41 78.614 9.853" fill="#EDEEEF"/><path d="M57.99 158.525H42.11c-4.274 0-7.74-3.465-7.74-7.74v-23.444c0-4.273 3.466-7.738 7.74-7.738h15.88c4.274 0 7.74 3.465 7.74 7.74v23.444c0 4.274-3.466 7.74-7.74 7.74" fill="#A58E7E"/><path d="M57.99 121.15H42.11c-4.274 0-7.74 3.465-7.74 7.74v6.13c8.64 6.886 19.37 12.103 31.36 15.014V128.89c0-4.275-3.466-7.74-7.74-7.74" fill="#826C5B"/><path d="M133.41 158.525h-15.88c-4.274 0-7.74-3.465-7.74-7.74v-23.444c0-4.273 3.466-7.738 7.74-7.738h15.88c4.274 0 7.74 3.465 7.74 7.74v23.444c0 4.274-3.466 7.74-7.74 7.74" fill="#A58E7E"/><path d="M133.41 121.15h-15.88c-4.274 0-7.74 3.465-7.74 7.74v21.144c11.99-2.91 22.72-8.128 31.36-15.013v-6.13c0-4.275-3.466-7.74-7.74-7.74" fill="#826C5B"/><path d="M163.253 86.31c0 33.215-33.8 60.143-75.493 60.143-41.694 0-75.492-26.928-75.492-60.144 0-33.218 33.798-60.145 75.492-60.145s75.493 26.927 75.493 60.144" fill="#8E7865"/><path d="M87.76 42.7c31.596 0 58.906 12.854 71.93 31.52-5.804-26.578-35.788-46.83-71.93-46.83-36.14 0-66.126 20.252-71.93 46.83C28.855 55.554 56.165 42.7 87.76 42.7" fill="#BCA799"/><path d="M87.76 128.553c31.596 0 58.906-12.855 71.93-31.52-5.804 26.578-35.788 46.83-71.93 46.83-36.14 0-66.126-20.252-71.93-46.83 13.025 18.665 40.335 31.52 71.93 31.52" fill="#826C5B"/><path d="M170.325 57.558s16.274 22.23-11.908 34.138" stroke="#8E7865" stroke-width="6.351" stroke-linecap="round"/><path d="M43.66 50.168c1.61 1.61.532 5.3-2.408 8.24-2.942 2.943-6.632 4.02-8.242 2.41-1.61-1.61-.533-5.3 2.41-8.24 2.94-2.942 6.63-4.02 8.24-2.41" fill="#493729"/><path d="M69.92 40.092s21.037-4.366 35.725 0" stroke="#493729" stroke-width="6.351" stroke-linecap="round"/><path d="M43.49 43.613s1.797-12.718-9.12-17.448c-10.915-4.73 24.016-8.303 26 11.942 0 0-.07 2.593-5.66 5.248-5.158 2.45-11.22.258-11.22.258M17.486 103.412H6.4c-3.535 0-6.4-2.866-6.4-6.4V74.867c0-3.535 2.865-6.4 6.4-6.4h11.086c3.535 0 6.4 2.865 6.4 6.4v22.145c0 3.534-2.865 6.4-6.4 6.4" fill="#8E7865"/><path d="M17.486 68.467H6.4c-3.535 0-6.4 2.865-6.4 6.4v5.605c0-3.535 2.865-6.4 6.4-6.4h11.086c3.535 0 6.4.794 6.4.794 0-3.534-2.865-6.4-6.4-6.4" fill="#BCA799"/><g transform="translate(67 -.792)"><mask id="b" fill="#fff"><use xlink:href="#a"/></mask><path d="M34.938 34.97c-7.82 7.817-20.495 7.817-28.313 0-7.819-7.82-7.819-20.495 0-28.313 7.819-7.82 20.494-7.82 28.313 0 7.819 7.818 7.819 20.494 0 28.312" fill="#FFDC80" mask="url(#b)"/></g><path d="M101.94 34.177c-7.82 7.818-20.496 7.818-28.314 0-7.82-7.818-7.82-20.494 0-28.312" fill="#D08526"/><path d="M101.175 33.413c-7.397 7.397-19.39 7.397-26.786 0-7.4-7.396-7.4-19.39 0-26.786 7.395-7.397 19.388-7.397 26.785 0 7.396 7.397 7.396 19.39 0 26.786" fill="#FFC83E"/><path d="M99.222 31.46c-6.318 6.32-16.562 6.32-22.88 0-6.32-6.317-6.32-16.56 0-22.88 6.318-6.318 16.562-6.318 22.88 0 6.318 6.32 6.318 16.563 0 22.88" fill="#D08526"/><path d="M98.368 30.607c-5.847 5.847-15.326 5.847-21.173 0-5.847-5.847-5.847-15.326 0-21.173 5.847-5.847 15.326-5.847 21.173 0 5.847 5.847 5.847 15.326 0 21.173" fill="#E6A320"/><path d="M89.47 30.067c-.082-.105-.162-.212-.245-.317l-5.88-7.358c-.023-.03-.044-.073-.045-.11-.004-.466-.004-.933-.004-1.4 0-.016.003-.033.005-.06l.1.002c.565-.002 1.13.006 1.692-.005.65-.014 1.29-.114 1.9-.352.697-.27 1.276-.694 1.658-1.352.21-.36.326-.75.343-1.168v-.078h-6.28c.026-.043.042-.07.06-.097.322-.485.646-.97.966-1.456.035-.055.073-.07.134-.07 1.603.002 3.205.002 4.807.002l.11-.002c-.084-.2-.19-.373-.313-.535-.334-.432-.78-.7-1.29-.87-.532-.175-1.083-.254-1.64-.264-.906-.023-1.813-.02-2.72-.028h-.11c.02-.037.033-.06.048-.082.326-.49.652-.98.976-1.47.035-.052.07-.07.13-.07 3.455.002 6.91.002 10.368.002h.092c-.02.034-.033.057-.048.08-.326.49-.652.98-.976 1.47-.035.056-.073.072-.136.07-.865-.002-1.73 0-2.596 0h-.122c.432.497.682 1.064.813 1.695h3.065c-.02.035-.034.058-.05.08l-.975 1.47c-.032.052-.067.072-.128.072-.6-.005-1.2-.003-1.8-.005-.06 0-.09.015-.098.08-.15.96-.582 1.77-1.276 2.447-.56.547-1.22.934-1.946 1.212-.69.264-1.406.41-2.143.457-.02.004-.04.006-.074.01.023.03.038.053.056.075l6.28 7.854c.016.018.026.044.04.067H89.47z" fill="#CF8325"/><path d="M88.73 29.327c-.082-.105-.162-.212-.245-.316l-5.88-7.358c-.023-.03-.044-.073-.044-.11-.004-.467-.004-.933-.005-1.4 0-.015.003-.032.006-.06h.102c.563 0 1.127.008 1.69-.003.65-.013 1.29-.113 1.9-.35.698-.273 1.276-.695 1.66-1.355.207-.36.325-.75.34-1.167.002-.023.002-.044.002-.077h-6.282c.028-.042.043-.07.06-.096.324-.485.647-.97.968-1.458.035-.054.073-.07.135-.07 1.602.003 3.203.003 4.806.003h.11c-.084-.203-.188-.375-.313-.537-.334-.432-.778-.7-1.29-.87-.532-.175-1.082-.253-1.64-.265-.906-.02-1.813-.02-2.72-.026h-.112c.024-.036.035-.06.05-.082.325-.49.652-.98.976-1.47.035-.05.07-.068.13-.068h10.458c-.017.034-.03.058-.045.08-.327.49-.654.98-.977 1.47-.035.055-.073.07-.136.07h-2.716c.43.497.68 1.064.81 1.695h3.067c-.02.035-.035.058-.05.08l-.975 1.472c-.032.05-.067.07-.127.068-.602-.002-1.2 0-1.802-.002-.06 0-.087.013-.096.078-.15.96-.583 1.772-1.276 2.448-.558.547-1.22.934-1.945 1.212-.692.264-1.407.41-2.144.458-.02 0-.04.003-.075.006.024.03.038.055.056.077l6.278 7.854c.017.02.03.045.043.067h-2.748z" fill="#FFDC80"/></g></svg>