<?xml version="1.0" encoding="UTF-8" standalone="no"?>
<svg width="121px" height="15px" viewBox="0 0 121 15" version="1.1" xmlns="http://www.w3.org/2000/svg" xmlns:xlink="http://www.w3.org/1999/xlink">
    <!-- Generator: Sketch 45.1 (43504) - http://www.bohemiancoding.com/sketch -->
    <title>Group 7</title>
    <desc>Created with Sketch.</desc>
    <defs>
        <linearGradient x1="50%" y1="-116.927083%" x2="50%" y2="161.08631%" id="linearGradient-1">
            <stop stop-color="#53B900" offset="0%"></stop>
            <stop stop-color="#186D0E" offset="71.4225925%"></stop>
            <stop stop-color="#004F14" offset="100%"></stop>
        </linearGradient>
        <path d="M6.25134477,10.1158107 C5.74417011,10.1158107 5.49058658,10.2996588 5.49058658,10.6673604 C5.49058658,10.7814747 5.51594493,10.8749836 5.5666624,10.94789 C5.61737986,11.0207963 5.72356797,11.0921167 5.88522989,11.1618532 C6.04689182,11.2315897 6.20696642,11.2934007 6.3654585,11.347288 C6.52395059,11.4011753 6.7870435,11.4851749 7.15474513,11.5992892 C7.52878645,11.7134035 7.92501072,11.843365 8.34342982,11.9891778 C9.20562675,12.2871429 9.90615125,12.6516692 10.4450243,13.0827677 C11.0980117,13.6026217 11.4245005,14.4568812 11.4245005,15.6455718 C11.4245005,16.8342625 11.0092575,17.7709366 10.178759,18.4556224 C9.34826045,19.1403082 8.21347415,19.482646 6.77436603,19.482646 C4.89148008,19.482646 3.00228279,18.95963 1.10671747,17.9135822 L2.31442111,15.1463243 C4.06417371,16.0402196 5.49375086,16.4871606 6.60319544,16.4871606 C7.19912567,16.4871606 7.49708632,16.2874636 7.49708632,15.8880635 C7.49708632,15.6915333 7.38297373,15.5346285 7.15474513,15.4173444 C6.92651653,15.3000602 6.54297144,15.1574195 6.00409836,14.9894179 C5.46522528,14.8214163 5.09118957,14.702549 4.88198002,14.6328125 C3.70279892,14.2460918 2.85646389,13.7896415 2.34294954,13.2634477 C1.82943519,12.737254 1.57268186,11.982843 1.57268186,11.0001921 C1.57268186,9.79565228 1.97207592,8.8669026 2.77087602,8.21391522 C3.56967613,7.56092783 4.67593427,7.23443904 6.08968366,7.23443904 C7.84577594,7.24077872 9.5923325,7.56726751 11.3294057,8.21391522 L10.5306096,10.9526447 C8.80621576,10.3947526 7.37980841,10.1158107 6.25134477,10.1158107 Z M24.9865202,19.3114754 L21.3443904,19.3114754 L21.3443904,15.0036821 L17.5025615,15.0036821 L17.5025615,19.3114754 L13.8604316,19.3114754 L13.8604316,7.43413806 L17.5025615,7.43413806 L17.5025615,11.694384 L21.3443904,11.694384 L21.3443904,7.43413806 L24.9865202,7.43413806 L24.9865202,19.3114754 Z M34.8969006,14.442623 L33.9649718,11.5992892 C33.901575,11.402759 33.777953,10.987516 33.5941022,10.3535476 C33.518026,10.6768715 33.4007436,11.0921145 33.2422515,11.5992892 L32.2913038,14.442623 L34.8969006,14.442623 Z M31.2737897,17.5427126 L30.7127305,19.3114754 L26.8518827,19.3114754 L31.1216381,7.43413806 L36.0855853,7.43413806 L40.3553407,19.3114754 L36.5135118,19.3114754 L35.9334337,17.5427126 L31.2737897,17.5427126 Z M45.8818519,13.4346183 L47.5840484,13.4346183 C48.0785437,13.4346183 48.4573341,13.3046568 48.720431,13.0447298 C48.9835278,12.7848027 49.1150743,12.4171066 49.1150743,11.9416304 C49.1150743,11.4661541 48.966094,11.1016278 48.6681288,10.8480405 C48.3701637,10.5944531 47.9422415,10.4676614 47.3843494,10.4676614 L45.8818519,10.4676614 L45.8818519,13.4346183 Z M42.2397221,7.43413806 L47.3463115,7.43413806 C49.058026,7.43413806 50.3782452,7.82243784 51.3070088,8.59904905 C52.2357724,9.37566026 52.7001473,10.4866731 52.7001473,11.9321209 C52.7001473,13.6691941 52.0503395,14.9149232 50.7507044,15.6693455 L53.1090548,19.0357006 L53.1090548,19.3114754 L49.2386975,19.3114754 L47.3463115,16.335009 L45.8818519,16.335009 L45.8818519,19.3114754 L42.2397221,19.3114754 L42.2397221,7.43413806 Z M64.2937052,19.3114754 L55.1170594,19.3114754 L55.1170594,7.43413806 L64.1415535,7.43413806 L64.1415535,10.4676614 L58.7211514,10.4676614 L58.7211514,11.9891778 L63.3237385,11.9891778 L63.3237385,14.8325115 L58.7211514,14.8325115 L58.7211514,16.2494237 L64.2937052,16.2494237 L64.2937052,19.3114754 Z M75.3181993,13.8149974 L76.706583,13.8149974 C77.2644751,13.8149974 77.6987369,13.6660171 78.0093814,13.368052 C78.3200259,13.0700869 78.4753458,12.6580136 78.4753458,12.1318199 C78.4753458,11.6056262 78.3168561,11.2062322 77.9998719,10.9336258 C77.6828878,10.6610194 77.2264374,10.5247182 76.6305072,10.5247182 L75.3181993,10.5247182 L75.3181993,13.8149974 Z M71.6760694,7.43413806 L76.6495261,7.43413806 C78.3612406,7.43413806 79.679875,7.83987171 80.6054688,8.65135118 C81.5374022,9.45649096 82.0033619,10.6071262 82.0033619,12.1032915 C82.0033619,13.5994568 81.540572,14.7532618 80.6149782,15.5647413 C79.6893845,16.3762208 78.3865991,16.7819544 76.706583,16.7819544 L75.3181993,16.7819544 L75.3181993,19.3114754 L71.6760694,19.3114754 L71.6760694,7.43413806 Z M90.2590932,14.442623 L89.3271644,11.5992892 C89.2637676,11.402759 89.1401456,10.987516 88.9562948,10.3535476 C88.8802186,10.6768715 88.7629362,11.0921145 88.6044442,11.5992892 L87.6534964,14.442623 L90.2590932,14.442623 Z M86.6359823,17.5427126 L86.0749232,19.3114754 L82.2140753,19.3114754 L86.4838307,7.43413806 L91.4477779,7.43413806 L95.7175333,19.3114754 L91.8757044,19.3114754 L91.2956263,17.5427126 L86.6359823,17.5427126 Z M102.06186,10.1158107 C101.554685,10.1158107 101.301101,10.2996588 101.301101,10.6673604 C101.301101,10.7814747 101.32646,10.8749836 101.377177,10.94789 C101.427895,11.0207963 101.534083,11.0921167 101.695745,11.1618532 C101.857407,11.2315897 102.017481,11.2934007 102.175973,11.347288 C102.334465,11.4011753 102.597558,11.4851749 102.96526,11.5992892 C103.339301,11.7134035 103.735526,11.843365 104.153945,11.9891778 C105.016142,12.2871429 105.716666,12.6516692 106.255539,13.0827677 C106.908527,13.6026217 107.235015,14.4568812 107.235015,15.6455718 C107.235015,16.8342625 106.819772,17.7709366 105.989274,18.4556224 C105.158775,19.1403082 104.023989,19.482646 102.584881,19.482646 C100.701995,19.482646 98.8127976,18.95963 96.9172323,17.9135822 L98.124936,15.1463243 C99.8746886,16.0402196 101.304266,16.4871606 102.41371,16.4871606 C103.009641,16.4871606 103.307601,16.2874636 103.307601,15.8880635 C103.307601,15.6915333 103.193489,15.5346285 102.96526,15.4173444 C102.737031,15.3000602 102.353486,15.1574195 101.814613,14.9894179 C101.27574,14.8214163 100.901704,14.702549 100.692495,14.6328125 C99.5133138,14.2460918 98.6669787,13.7896415 98.1534644,13.2634477 C97.63995,12.737254 97.3831967,11.982843 97.3831967,11.0001921 C97.3831967,9.79565228 97.7825908,8.8669026 98.5813909,8.21391522 C99.380191,7.56092783 100.486449,7.23443904 101.900199,7.23443904 C103.656291,7.24077872 105.402847,7.56726751 107.139921,8.21391522 L106.341124,10.9526447 C104.616731,10.3947526 103.190323,10.1158107 102.06186,10.1158107 Z M114.387647,10.1158107 C113.880473,10.1158107 113.626889,10.2996588 113.626889,10.6673604 C113.626889,10.7814747 113.652247,10.8749836 113.702965,10.94789 C113.753682,11.0207963 113.85987,11.0921167 114.021532,11.1618532 C114.183194,11.2315897 114.343269,11.2934007 114.501761,11.347288 C114.660253,11.4011753 114.923346,11.4851749 115.291048,11.5992892 C115.665089,11.7134035 116.061313,11.843365 116.479732,11.9891778 C117.341929,12.2871429 118.042454,12.6516692 118.581327,13.0827677 C119.234314,13.6026217 119.560803,14.4568812 119.560803,15.6455718 C119.560803,16.8342625 119.14556,17.7709366 118.315061,18.4556224 C117.484563,19.1403082 116.349777,19.482646 114.910669,19.482646 C113.027783,19.482646 111.138585,18.95963 109.24302,17.9135822 L110.450724,15.1463243 C112.200476,16.0402196 113.630053,16.4871606 114.739498,16.4871606 C115.335428,16.4871606 115.633389,16.2874636 115.633389,15.8880635 C115.633389,15.6915333 115.519276,15.5346285 115.291048,15.4173444 C115.062819,15.3000602 114.679274,15.1574195 114.140401,14.9894179 C113.601528,14.8214163 113.227492,14.702549 113.018283,14.6328125 C111.839101,14.2460918 110.992766,13.7896415 110.479252,13.2634477 C109.965738,12.737254 109.708984,11.982843 109.708984,11.0001921 C109.708984,9.79565228 110.108378,8.8669026 110.907179,8.21391522 C111.705979,7.56092783 112.812237,7.23443904 114.225986,7.23443904 C115.982078,7.24077872 117.728635,7.56726751 119.465708,8.21391522 L118.666912,10.9526447 C116.942518,10.3947526 115.516111,10.1158107 114.387647,10.1158107 Z" id="path-2"></path>
        <filter x="-1.7%" y="-8.2%" width="103.4%" height="132.7%" filterUnits="objectBoundingBox" id="filter-3">
            <feOffset dx="0" dy="1" in="SourceAlpha" result="shadowOffsetOuter1"></feOffset>
            <feGaussianBlur stdDeviation="0.5" in="shadowOffsetOuter1" result="shadowBlurOuter1"></feGaussianBlur>
            <feColorMatrix values="0 0 0 0 1   0 0 0 0 1   0 0 0 0 1  0 0 0 1 0" type="matrix" in="shadowBlurOuter1"></feColorMatrix>
        </filter>
        <filter x="-1.7%" y="-8.2%" width="103.4%" height="132.7%" filterUnits="objectBoundingBox" id="filter-4">
            <feGaussianBlur stdDeviation="0.5" in="SourceAlpha" result="shadowBlurInner1"></feGaussianBlur>
            <feOffset dx="0" dy="1" in="shadowBlurInner1" result="shadowOffsetInner1"></feOffset>
            <feComposite in="shadowOffsetInner1" in2="SourceAlpha" operator="arithmetic" k2="-1" k3="1" result="shadowInnerInner1"></feComposite>
            <feColorMatrix values="0 0 0 0 0   0 0 0 0 0   0 0 0 0 0  0 0 0 0.75 0" type="matrix" in="shadowInnerInner1"></feColorMatrix>
        </filter>
    </defs>
    <g id="Share-Pass-Final" stroke="none" stroke-width="1" fill="none" fill-rule="evenodd">
        <g id="-Share-Pass" transform="translate(-732.000000, -2411.000000)">
            <g id="DISCOVERY" transform="translate(0.000000, 1992.000000)">
                <g id="Passes-Comparison" transform="translate(200.000000, 338.000000)">
                    <g id="Share-Pass-3" transform="translate(508.000000, 0.000000)">
                        <g id="Pass">
                            <g id="Share-Pass" transform="translate(13.000000, 49.000000)">
                                <g id="Group-7" transform="translate(11.000000, 25.000000)">
                                    <g id="SHARE-PASS">
                                        <use fill="black" fill-opacity="1" filter="url(#filter-3)" xlink:href="#path-2"></use>
                                        <use fill="url(#linearGradient-1)" fill-rule="evenodd" xlink:href="#path-2"></use>
                                        <use fill="black" fill-opacity="1" filter="url(#filter-4)" xlink:href="#path-2"></use>
                                    </g>
                                </g>
                            </g>
                        </g>
                    </g>
                </g>
            </g>
        </g>
    </g>
</svg>