<?xml version="1.0" encoding="UTF-8" standalone="no"?>
<svg width="166px" height="166px" viewBox="0 0 166 166" version="1.1" xmlns="http://www.w3.org/2000/svg" xmlns:xlink="http://www.w3.org/1999/xlink">
    <!-- Generator: Sketch 3.8.2 (29753) - http://www.bohemiancoding.com/sketch -->
    <title>Shape</title>
    <desc>Created with Sketch.</desc>
    <defs></defs>
    <g id="Page-1" stroke="none" stroke-width="1" fill="none" fill-rule="evenodd">
        <g id="Social-Media-Icons" fill="#ABADAF">
            <path d="M82.7,0.6 C37.1,0.6 0.2,37.5 0.2,83.1 C0.2,128.7 37.1,165.6 82.7,165.6 C128.3,165.6 165.2,128.7 165.2,83.1 C165.2,37.6 128.2,0.6 82.7,0.6 L82.7,0.6 Z M102.6,54.7 L91.8,54.7 C87.3,54.7 88.3,60.2 88.3,60.2 L88.3,71.4 L102.7,71.4 L102.7,85.8 L88.3,85.8 L88.3,124.7 L72,124.7 L72,85.8 L61.2,85.8 L61.2,71.4 L72,71.4 L72,60.2 C72,42 88.3,41.1 88.3,41.1 L102.7,41.1 L102.7,54.7 L102.6,54.7 Z" id="Shape"></path>
        </g>
    </g>
</svg>