<?xml version="1.0" encoding="UTF-8" standalone="no"?>
<svg width="166px" height="166px" viewBox="0 0 166 166" version="1.1" xmlns="http://www.w3.org/2000/svg" xmlns:xlink="http://www.w3.org/1999/xlink">
    <!-- Generator: Sketch 3.8.2 (29753) - http://www.bohemiancoding.com/sketch -->
    <title>Group</title>
    <desc>Created with Sketch.</desc>
    <defs></defs>
    <g id="Page-1" stroke="none" stroke-width="1" fill="none" fill-rule="evenodd">
        <g id="Social-Media-Icons" transform="translate(-463.000000, 0.000000)" fill="#939598">
            <g id="Group" transform="translate(463.000000, 0.000000)">
                <path d="M104.5,48.6 L62.6,48.6 C54.8,48.6 48.5,54.9 48.5,62.7 L48.5,104.6 C48.5,112.3 54.8,118.7 62.6,118.7 L104.5,118.7 C112.3,118.7 118.6,112.4 118.6,104.6 L118.6,62.7 C118.6,54.9 112.3,48.6 104.5,48.6 L104.5,48.6 Z M83.1,103.4 C71.9,103.4 62.8,94.3 62.8,83.1 C62.8,71.9 71.9,62.8 83.1,62.8 C94.3,62.8 103.4,71.9 103.4,83.1 C103.3,94.3 94.2,103.4 83.1,103.4 L83.1,103.4 Z M105.8,65.4 C103.2,65.4 101,63.3 101,60.6 C101,58 103.1,55.8 105.8,55.8 C108.4,55.8 110.6,57.9 110.6,60.6 C110.6,63.3 108.5,65.4 105.8,65.4 L105.8,65.4 Z" id="Shape"></path>
                <path d="M83.1,68.5 C75,68.5 68.4,75.1 68.4,83.2 C68.4,91.3 75,97.9 83.1,97.9 C91.2,97.9 97.8,91.3 97.8,83.2 C97.7,75 91.1,68.5 83.1,68.5 L83.1,68.5 Z" id="Shape"></path>
                <path d="M83.1,0.6 C37.5,0.6 0.6,37.5 0.6,83.1 C0.6,128.7 37.5,165.6 83.1,165.6 C128.7,165.6 165.6,128.7 165.6,83.1 C165.6,37.6 128.6,0.6 83.1,0.6 L83.1,0.6 Z M124.2,104.5 C124.2,115.3 115.4,124.2 104.5,124.2 L62.6,124.2 C51.8,124.2 42.9,115.4 42.9,104.5 L42.9,62.6 C42.9,51.8 51.7,42.9 62.6,42.9 L104.5,42.9 C115.3,42.9 124.2,51.7 124.2,62.6 L124.2,104.5 L124.2,104.5 Z" id="Shape"></path>
            </g>
        </g>
    </g>
</svg>