<?xml version="1.0" encoding="UTF-8" standalone="no"?>
<svg width="165px" height="166px" viewBox="0 0 165 166" version="1.1" xmlns="http://www.w3.org/2000/svg" xmlns:xlink="http://www.w3.org/1999/xlink">
    <!-- Generator: Sketch 3.8.2 (29753) - http://www.bohemiancoding.com/sketch -->
    <title>Shape</title>
    <desc>Created with Sketch.</desc>
    <defs></defs>
    <g id="Page-1" stroke="none" stroke-width="1" fill="none" fill-rule="evenodd">
        <g id="Social-Media-Icons" transform="translate(-233.000000, 0.000000)" fill="#ABADAF">
            <path d="M315.5,0.6 C269.9,0.6 233,37.5 233,83.1 C233,128.7 269.9,165.6 315.5,165.6 C361.1,165.6 398,128.7 398,83.1 C398,37.6 361,0.6 315.5,0.6 L315.5,0.6 Z M348.1,66.3 C348.1,66.3 342,138.3 272.7,110.3 C272.7,110.3 287,111 296.2,102.8 C296.2,102.8 284.9,102.1 280.8,90.9 L288.6,91.2 C288.6,91.2 276.3,86.1 274.6,73.1 L281.8,75.5 C281.8,75.5 270.9,63.2 277.4,51.3 C277.4,51.3 292.8,70.1 313.6,70.1 C313.6,70.1 310.2,58.2 323.2,50 C336.2,41.8 343,54.8 343,54.8 C343,54.8 351.2,52.8 353.6,49.7 C353.6,49.7 353.9,55.2 347.8,59.6 L356,57.2 C356,57.1 353.9,61.8 348.1,66.3 L348.1,66.3 Z" id="Shape"></path>
        </g>
    </g>
</svg>